<svg xmlns="http://www.w3.org/2000/svg" xmlns:xlink="http://www.w3.org/1999/xlink" version="1.1" data-diagram-type="SEQUENCE" style="width:1846px;height:1625px;background:#FFFFFF;" width="1846px" height="1625px" viewBox="0 0 1846 1625" zoomAndPan="magnify" preserveAspectRatio="none" contentStyleType="text/css"><?plantuml 1.2026.7beta11?><defs/><g font-family="sans-serif" lengthAdjust="spacing"><g class="title" data-source-line="1"><text x="773.928" y="27.995" fill="#000" font-size="14" textLength="296.249" font-weight="700">Sequence Diagram - Giữ ghế tạm thời</text></g><rect x="162.187" y="295.391" width="1661.571" height="1218.727" fill="none" style="stroke:#000;stroke-width:1.5;"/><rect x="181.187" y="795.453" width="1617.571" height="704.664" fill="none" style="stroke:#000;stroke-width:1.5;"/><rect x="200.187" y="945.789" width="1573.571" height="540.328" fill="none" style="stroke:#000;stroke-width:1.5;"/><g><title>Customer</title><rect x="43.502" y="123.594" width="8" height="1414.523" fill="#000" fill-opacity="0"/><line x1="47.002" y1="123.594" x2="47.002" y2="1538.117" style="stroke:#181818;stroke-width:0.5;stroke-dasharray:5,5;"/></g><g><title>React SeatSelectionPage</title><rect x="212.687" y="123.594" width="8" height="1414.523" fill="#000" fill-opacity="0"/><line x1="216.187" y1="123.594" x2="216.187" y2="1538.117" style="stroke:#181818;stroke-width:0.5;stroke-dasharray:5,5;"/></g><g><title>BookingController</title><rect x="429.834" y="123.594" width="8" height="1414.523" fill="#000" fill-opacity="0"/><line x1="433.334" y1="123.594" x2="433.334" y2="1538.117" style="stroke:#181818;stroke-width:0.5;stroke-dasharray:5,5;"/></g><g><title>SeatHoldRateLimitService</title><rect x="684.712" y="123.594" width="8" height="1414.523" fill="#000" fill-opacity="0"/><line x1="688.212" y1="123.594" x2="688.212" y2="1538.117" style="stroke:#181818;stroke-width:0.5;stroke-dasharray:5,5;"/></g><g><title>BookingServiceImpl</title><rect x="869.247" y="123.594" width="8" height="1414.523" fill="#000" fill-opacity="0"/><line x1="872.747" y1="123.594" x2="872.747" y2="1538.117" style="stroke:#181818;stroke-width:0.5;stroke-dasharray:5,5;"/></g><g><title>ShowtimeRepository</title><rect x="1171.032" y="123.594" width="8" height="1414.523" fill="#000" fill-opacity="0"/><line x1="1174.532" y1="123.594" x2="1174.532" y2="1538.117" style="stroke:#181818;stroke-width:0.5;stroke-dasharray:5,5;"/></g><g><title>SeatStatusRepository</title><rect x="1342.896" y="123.594" width="8" height="1414.523" fill="#000" fill-opacity="0"/><line x1="1346.396" y1="123.594" x2="1346.396" y2="1538.117" style="stroke:#181818;stroke-width:0.5;stroke-dasharray:5,5;"/></g><g><title>UserRepository</title><rect x="1496.014" y="123.594" width="8" height="1414.523" fill="#000" fill-opacity="0"/><line x1="1499.514" y1="123.594" x2="1499.514" y2="1538.117" style="stroke:#181818;stroke-width:0.5;stroke-dasharray:5,5;"/></g><g><title>PostgreSQL</title><rect x="1623.532" y="123.594" width="8" height="1414.523" fill="#000" fill-opacity="0"/><line x1="1627.032" y1="123.594" x2="1627.032" y2="1538.117" style="stroke:#181818;stroke-width:0.5;stroke-dasharray:5,5;"/></g><g><title>SeatStatusPublisher</title><rect x="1754.257" y="123.594" width="8" height="1414.523" fill="#000" fill-opacity="0"/><line x1="1757.757" y1="123.594" x2="1757.757" y2="1538.117" style="stroke:#181818;stroke-width:0.5;stroke-dasharray:5,5;"/></g><text x="10" y="120.292" fill="#000" font-size="14" textLength="68.004">Customer</text><ellipse cx="47.002" cy="55.797" rx="8" ry="8" fill="#E2E2F0" style="stroke:#181818;stroke-width:0.5;"/><path d="M47.002,63.797 L47.002,90.797 M34.002,71.797 L60.002,71.797 M47.002,90.797 L34.002,105.797 M47.002,90.797 L60.002,105.797" style="stroke:#181818;stroke-width:0.5;" fill="none"/><rect x="121.604" y="92.297" width="189.164" height="30.297" fill="#E2E2F0" style="stroke:#181818;stroke-width:0.5;" rx="2.5" ry="2.5"/><text x="128.604" y="112.292" fill="#000" font-size="14" textLength="175.164">React SeatSelectionPage</text><rect x="363.501" y="92.297" width="139.665" height="30.297" fill="#E2E2F0" style="stroke:#181818;stroke-width:0.5;" rx="2.5" ry="2.5"/><text x="370.501" y="112.292" fill="#000" font-size="14" textLength="125.665">BookingController</text><rect x="590.065" y="92.297" width="196.294" height="30.297" fill="#E2E2F0" style="stroke:#181818;stroke-width:0.5;" rx="2.5" ry="2.5"/><text x="597.065" y="112.292" fill="#000" font-size="14" textLength="182.294">SeatHoldRateLimitService</text><rect x="796.359" y="92.297" width="152.776" height="30.297" fill="#E2E2F0" style="stroke:#181818;stroke-width:0.5;" rx="2.5" ry="2.5"/><text x="803.359" y="112.292" fill="#000" font-size="14" textLength="138.776">BookingServiceImpl</text><rect x="1095.293" y="92.297" width="158.478" height="30.297" fill="#E2E2F0" style="stroke:#181818;stroke-width:0.5;" rx="2.5" ry="2.5"/><text x="1102.293" y="112.292" fill="#000" font-size="14" textLength="144.478">ShowtimeRepository</text><rect x="1263.771" y="92.297" width="165.252" height="30.297" fill="#E2E2F0" style="stroke:#181818;stroke-width:0.5;" rx="2.5" ry="2.5"/><text x="1270.771" y="112.292" fill="#000" font-size="14" textLength="151.252">SeatStatusRepository</text><rect x="1439.022" y="92.297" width="120.982" height="30.297" fill="#E2E2F0" style="stroke:#181818;stroke-width:0.5;" rx="2.5" ry="2.5"/><text x="1446.022" y="112.292" fill="#000" font-size="14" textLength="106.982">UserRepository</text><text x="1583.656" y="120.292" fill="#000" font-size="14" textLength="80.753">PostgreSQL</text><path d="M1609.032,71.297 C1609.032,61.297 1627.032,61.297 1627.032,61.297 C1627.032,61.297 1645.032,61.297 1645.032,71.297 L1645.032,97.297 C1645.032,107.297 1627.032,107.297 1627.032,107.297 C1627.032,107.297 1609.032,107.297 1609.032,97.297 L1609.032,71.297" style="stroke:#181818;stroke-width:0.5;" fill="#E2E2F0"/><path d="M1609.032,71.297 C1609.032,81.297 1627.032,81.297 1627.032,81.297 C1627.032,81.297 1645.032,81.297 1645.032,71.297" style="stroke:#181818;stroke-width:0.5;" fill="none"/><rect x="1680.409" y="92.297" width="154.697" height="30.297" fill="#E2E2F0" style="stroke:#181818;stroke-width:0.5;" rx="2.5" ry="2.5"/><text x="1687.409" y="112.292" fill="#000" font-size="14" textLength="140.697">SeatStatusPublisher</text><text x="10" y="1551.112" fill="#000" font-size="14" textLength="68.004">Customer</text><ellipse cx="47.002" cy="1562.914" rx="8" ry="8" fill="#E2E2F0" style="stroke:#181818;stroke-width:0.5;"/><path d="M47.002,1570.914 L47.002,1597.914 M34.002,1578.914 L60.002,1578.914 M47.002,1597.914 L34.002,1612.914 M47.002,1597.914 L60.002,1612.914" style="stroke:#181818;stroke-width:0.5;" fill="none"/><rect x="121.604" y="1538.117" width="189.164" height="30.297" fill="#E2E2F0" style="stroke:#181818;stroke-width:0.5;" rx="2.5" ry="2.5"/><text x="128.604" y="1558.112" fill="#000" font-size="14" textLength="175.164">React SeatSelectionPage</text><rect x="363.501" y="1538.117" width="139.665" height="30.297" fill="#E2E2F0" style="stroke:#181818;stroke-width:0.5;" rx="2.5" ry="2.5"/><text x="370.501" y="1558.112" fill="#000" font-size="14" textLength="125.665">BookingController</text><rect x="590.065" y="1538.117" width="196.294" height="30.297" fill="#E2E2F0" style="stroke:#181818;stroke-width:0.5;" rx="2.5" ry="2.5"/><text x="597.065" y="1558.112" fill="#000" font-size="14" textLength="182.294">SeatHoldRateLimitService</text><rect x="796.359" y="1538.117" width="152.776" height="30.297" fill="#E2E2F0" style="stroke:#181818;stroke-width:0.5;" rx="2.5" ry="2.5"/><text x="803.359" y="1558.112" fill="#000" font-size="14" textLength="138.776">BookingServiceImpl</text><rect x="1095.293" y="1538.117" width="158.478" height="30.297" fill="#E2E2F0" style="stroke:#181818;stroke-width:0.5;" rx="2.5" ry="2.5"/><text x="1102.293" y="1558.112" fill="#000" font-size="14" textLength="144.478">ShowtimeRepository</text><rect x="1263.771" y="1538.117" width="165.252" height="30.297" fill="#E2E2F0" style="stroke:#181818;stroke-width:0.5;" rx="2.5" ry="2.5"/><text x="1270.771" y="1558.112" fill="#000" font-size="14" textLength="151.252">SeatStatusRepository</text><rect x="1439.022" y="1538.117" width="120.982" height="30.297" fill="#E2E2F0" style="stroke:#181818;stroke-width:0.5;" rx="2.5" ry="2.5"/><text x="1446.022" y="1558.112" fill="#000" font-size="14" textLength="106.982">UserRepository</text><text x="1583.656" y="1551.112" fill="#000" font-size="14" textLength="80.753">PostgreSQL</text><path d="M1609.032,1564.414 C1609.032,1554.414 1627.032,1554.414 1627.032,1554.414 C1627.032,1554.414 1645.032,1554.414 1645.032,1564.414 L1645.032,1590.414 C1645.032,1600.414 1627.032,1600.414 1627.032,1600.414 C1627.032,1600.414 1609.032,1600.414 1609.032,1590.414 L1609.032,1564.414" style="stroke:#181818;stroke-width:0.5;" fill="#E2E2F0"/><path d="M1609.032,1564.414 C1609.032,1574.414 1627.032,1574.414 1627.032,1574.414 C1627.032,1574.414 1645.032,1574.414 1645.032,1564.414" style="stroke:#181818;stroke-width:0.5;" fill="none"/><rect x="1680.409" y="1538.117" width="154.697" height="30.297" fill="#E2E2F0" style="stroke:#181818;stroke-width:0.5;" rx="2.5" ry="2.5"/><text x="1687.409" y="1558.112" fill="#000" font-size="14" textLength="140.697">SeatStatusPublisher</text><polygon points="204.187,148.727,214.187,152.727,204.187,156.727,208.187,152.727" fill="#181818" style="stroke:#181818;stroke-width:1;stroke-linejoin:miter;stroke-miterlimit:10;"/><line x1="47.002" y1="152.727" x2="210.187" y2="152.727" style="stroke:#181818;stroke-width:1;"/><text x="54.002" y="147.661" fill="#000" font-size="13" font-weight="700">1</text><text x="67.047" y="147.661" fill="#000" font-size="13" textLength="132.139">Chọn ghế trên sơ đồ</text><polygon points="421.334,208.125,431.334,212.125,421.334,216.125,425.334,212.125" fill="#181818" style="stroke:#181818;stroke-width:1;stroke-linejoin:miter;stroke-miterlimit:10;"/><line x1="216.187" y1="212.125" x2="427.334" y2="212.125" style="stroke:#181818;stroke-width:1;"/><text x="223.187" y="191.926" fill="#000" font-size="13" font-weight="700">2</text><text x="236.232" y="176.793" fill="#000" font-size="13" textLength="178.331">POST /api/v1/bookings/hold</text><text x="236.232" y="191.926" fill="#000" font-size="13" textLength="154.819">{ showtimeId, seatIds }</text><text x="236.232" y="207.059" fill="#000" font-size="13" textLength="180.102">Authorization: Bearer token</text><line x1="433.334" y1="241.258" x2="475.334" y2="241.258" style="stroke:#181818;stroke-width:1;"/><line x1="475.334" y1="241.258" x2="475.334" y2="254.258" style="stroke:#181818;stroke-width:1;"/><line x1="434.334" y1="254.258" x2="475.334" y2="254.258" style="stroke:#181818;stroke-width:1;"/><polygon points="444.334,250.258,434.334,254.258,444.334,258.258,440.334,254.258" fill="#181818" style="stroke:#181818;stroke-width:1;stroke-linejoin:miter;stroke-miterlimit:10;"/><text x="440.334" y="236.192" fill="#000" font-size="13" font-weight="700">3</text><text x="453.379" y="236.192" fill="#000" font-size="13" textLength="85.712">Validate DTO</text><polygon points="676.212,279.391,686.212,283.391,676.212,287.391,680.212,283.391" fill="#181818" style="stroke:#181818;stroke-width:1;stroke-linejoin:miter;stroke-miterlimit:10;"/><line x1="433.334" y1="283.391" x2="682.212" y2="283.391" style="stroke:#181818;stroke-width:1;"/><text x="440.334" y="278.325" fill="#000" font-size="13" font-weight="700">4</text><text x="453.379" y="278.325" fill="#000" font-size="13" textLength="146.11">check(servletRequest)</text><path d="M162.187,295.391 L226.629,295.391 L226.629,302.523 L216.629,312.523 L162.187,312.523 L162.187,295.391" style="stroke:#000;stroke-width:1.5;" fill="#EEE"/><rect x="162.187" y="295.391" width="1661.571" height="1218.727" fill="none" style="stroke:#000;stroke-width:1.5;"/><text x="177.187" y="308.458" fill="#000" font-size="13" textLength="19.443" font-weight="700">alt</text><text x="241.629" y="307.601" fill="#000" font-size="11" textLength="100.472" font-weight="700">[Vượt rate limit]</text><polygon points="444.334,339.656,434.334,343.656,444.334,347.656,440.334,343.656" fill="#181818" style="stroke:#181818;stroke-width:1;stroke-linejoin:miter;stroke-miterlimit:10;"/><line x1="438.334" y1="343.656" x2="687.212" y2="343.656" style="stroke:#181818;stroke-width:1;stroke-dasharray:2,2;"/><text x="450.334" y="338.59" fill="#000" font-size="13" font-weight="700">5</text><text x="463.379" y="338.59" fill="#000" font-size="13" textLength="217.833">throw SEAT_HOLD_RATE_LIMITED</text><polygon points="227.187,368.789,217.187,372.789,227.187,376.789,223.187,372.789" fill="#181818" style="stroke:#181818;stroke-width:1;stroke-linejoin:miter;stroke-miterlimit:10;"/><line x1="221.187" y1="372.789" x2="432.334" y2="372.789" style="stroke:#181818;stroke-width:1;stroke-dasharray:2,2;"/><text x="233.187" y="367.723" fill="#000" font-size="13" font-weight="700">6</text><text x="246.232" y="367.723" fill="#000" font-size="13" textLength="103.086">ApiResponse lỗi</text><line x1="162.187" y1="381.789" x2="1823.757" y2="381.789" style="stroke:#000;stroke-width:1;stroke-dasharray:2,2;"/><text x="167.187" y="394" fill="#000" font-size="11" textLength="118.685" font-weight="700">[Cho phép giữ ghế]</text><polygon points="860.747,416.727,870.747,420.727,860.747,424.727,864.747,420.727" fill="#181818" style="stroke:#181818;stroke-width:1;stroke-linejoin:miter;stroke-miterlimit:10;"/><line x1="433.334" y1="420.727" x2="866.747" y2="420.727" style="stroke:#181818;stroke-width:1;"/><text x="440.334" y="415.661" fill="#000" font-size="13" font-weight="700">7</text><text x="453.379" y="415.661" fill="#000" font-size="13" textLength="123.989">holdSeats(request)</text><line x1="872.747" y1="464.992" x2="914.747" y2="464.992" style="stroke:#181818;stroke-width:1;"/><line x1="914.747" y1="464.992" x2="914.747" y2="477.992" style="stroke:#181818;stroke-width:1;"/><line x1="873.747" y1="477.992" x2="914.747" y2="477.992" style="stroke:#181818;stroke-width:1;"/><polygon points="883.747,473.992,873.747,477.992,883.747,481.992,879.747,477.992" fill="#181818" style="stroke:#181818;stroke-width:1;stroke-linejoin:miter;stroke-miterlimit:10;"/><text x="879.747" y="452.36" fill="#000" font-size="13" font-weight="700">8</text><text x="892.792" y="444.793" fill="#000" font-size="13" textLength="119.019">Lấy current userId</text><text x="896.925" y="459.926" fill="#000" font-size="13" textLength="122.008">từ SecurityContext</text><polygon points="1162.532,503.125,1172.532,507.125,1162.532,511.125,1166.532,507.125" fill="#181818" style="stroke:#181818;stroke-width:1;stroke-linejoin:miter;stroke-miterlimit:10;"/><line x1="872.747" y1="507.125" x2="1168.532" y2="507.125" style="stroke:#181818;stroke-width:1;"/><text x="879.747" y="502.059" fill="#000" font-size="13" font-weight="700">9</text><text x="892.792" y="502.059" fill="#000" font-size="13" textLength="179.017">findActiveById(showtimeId)</text><polygon points="1615.032,532.258,1625.032,536.258,1615.032,540.258,1619.032,536.258" fill="#181818" style="stroke:#181818;stroke-width:1;stroke-linejoin:miter;stroke-miterlimit:10;"/><line x1="1174.532" y1="536.258" x2="1621.032" y2="536.258" style="stroke:#181818;stroke-width:1;"/><text x="1181.532" y="531.192" fill="#000" font-size="13" textLength="18.091" font-weight="700">10</text><text x="1203.623" y="531.192" fill="#000" font-size="13" textLength="159.688">SELECT showtime active</text><polygon points="1185.532,561.391,1175.532,565.391,1185.532,569.391,1181.532,565.391" fill="#181818" style="stroke:#181818;stroke-width:1;stroke-linejoin:miter;stroke-miterlimit:10;"/><line x1="1179.532" y1="565.391" x2="1626.032" y2="565.391" style="stroke:#181818;stroke-width:1;stroke-dasharray:2,2;"/><text x="1191.532" y="560.325" fill="#000" font-size="13" textLength="18.091" font-weight="700">11</text><text x="1213.623" y="560.325" fill="#000" font-size="13" textLength="64.448">Showtime</text><polygon points="883.747,590.523,873.747,594.523,883.747,598.523,879.747,594.523" fill="#181818" style="stroke:#181818;stroke-width:1;stroke-linejoin:miter;stroke-miterlimit:10;"/><line x1="877.747" y1="594.523" x2="1173.532" y2="594.523" style="stroke:#181818;stroke-width:1;stroke-dasharray:2,2;"/><text x="889.747" y="589.458" fill="#000" font-size="13" textLength="18.091" font-weight="700">12</text><text x="911.838" y="589.458" fill="#000" font-size="13" textLength="64.448">Showtime</text><line x1="872.747" y1="623.656" x2="914.747" y2="623.656" style="stroke:#181818;stroke-width:1;"/><line x1="914.747" y1="623.656" x2="914.747" y2="636.656" style="stroke:#181818;stroke-width:1;"/><line x1="873.747" y1="636.656" x2="914.747" y2="636.656" style="stroke:#181818;stroke-width:1;"/><polygon points="883.747,632.656,873.747,636.656,883.747,640.656,879.747,636.656" fill="#181818" style="stroke:#181818;stroke-width:1;stroke-linejoin:miter;stroke-miterlimit:10;"/><text x="879.747" y="618.59" fill="#000" font-size="13" textLength="18.091" font-weight="700">13</text><text x="901.838" y="618.59" fill="#000" font-size="13" textLength="265.694">validateShowtimeBookableForNewHold()</text><polygon points="1334.396,676.922,1344.396,680.922,1334.396,684.922,1338.396,680.922" fill="#181818" style="stroke:#181818;stroke-width:1;stroke-linejoin:miter;stroke-miterlimit:10;"/><line x1="872.747" y1="680.922" x2="1340.396" y2="680.922" style="stroke:#181818;stroke-width:1;"/><text x="879.747" y="668.29" fill="#000" font-size="13" textLength="18.091" font-weight="700">14</text><text x="901.838" y="660.723" fill="#000" font-size="13" textLength="235.066">findForUpdateByShowtimeAndSeats</text><text x="901.838" y="675.856" fill="#000" font-size="13" textLength="140.156">(showtimeId, seatIds)</text><polygon points="1615.032,721.188,1625.032,725.188,1615.032,729.188,1619.032,725.188" fill="#181818" style="stroke:#181818;stroke-width:1;stroke-linejoin:miter;stroke-miterlimit:10;"/><line x1="1346.396" y1="725.188" x2="1621.032" y2="725.188" style="stroke:#181818;stroke-width:1;"/><text x="1353.396" y="712.555" fill="#000" font-size="13" textLength="18.091" font-weight="700">15</text><text x="1375.487" y="704.989" fill="#000" font-size="13" textLength="191.077">SELECT seat_status JOIN seat</text><text x="1375.487" y="720.122" fill="#000" font-size="13" textLength="83.288">FOR UPDATE</text><polygon points="1357.396,750.32,1347.396,754.32,1357.396,758.32,1353.396,754.32" fill="#181818" style="stroke:#181818;stroke-width:1;stroke-linejoin:miter;stroke-miterlimit:10;"/><line x1="1351.396" y1="754.32" x2="1626.032" y2="754.32" style="stroke:#181818;stroke-width:1;stroke-dasharray:2,2;"/><text x="1363.396" y="749.254" fill="#000" font-size="13" textLength="18.091" font-weight="700">16</text><text x="1385.487" y="749.254" fill="#000" font-size="13" textLength="152.198">locked SeatStatus rows</text><polygon points="883.747,779.453,873.747,783.453,883.747,787.453,879.747,783.453" fill="#181818" style="stroke:#181818;stroke-width:1;stroke-linejoin:miter;stroke-miterlimit:10;"/><line x1="877.747" y1="783.453" x2="1345.396" y2="783.453" style="stroke:#181818;stroke-width:1;stroke-dasharray:2,2;"/><text x="889.747" y="778.387" fill="#000" font-size="13" textLength="18.091" font-weight="700">17</text><text x="911.838" y="778.387" fill="#000" font-size="13" textLength="115.248">List&lt;SeatStatus></text><path d="M181.187,795.453 L245.629,795.453 L245.629,802.586 L235.629,812.586 L181.187,812.586 L181.187,795.453" style="stroke:#000;stroke-width:1.5;" fill="#EEE"/><rect x="181.187" y="795.453" width="1617.571" height="704.664" fill="none" style="stroke:#000;stroke-width:1.5;"/><text x="196.187" y="808.52" fill="#000" font-size="13" textLength="19.443" font-weight="700">alt</text><text x="260.629" y="807.664" fill="#000" font-size="11" textLength="168.411" font-weight="700">[Không tìm đủ seat_status]</text><polygon points="444.334,839.719,434.334,843.719,444.334,847.719,440.334,843.719" fill="#181818" style="stroke:#181818;stroke-width:1;stroke-linejoin:miter;stroke-miterlimit:10;"/><line x1="438.334" y1="843.719" x2="871.747" y2="843.719" style="stroke:#181818;stroke-width:1;stroke-dasharray:2,2;"/><text x="450.334" y="838.653" fill="#000" font-size="13" textLength="18.091" font-weight="700">18</text><text x="472.425" y="838.653" fill="#000" font-size="13" textLength="162.557">throw SEAT_NOT_FOUND</text><polygon points="227.187,868.852,217.187,872.852,227.187,876.852,223.187,872.852" fill="#181818" style="stroke:#181818;stroke-width:1;stroke-linejoin:miter;stroke-miterlimit:10;"/><line x1="221.187" y1="872.852" x2="432.334" y2="872.852" style="stroke:#181818;stroke-width:1;stroke-dasharray:2,2;"/><text x="233.187" y="867.786" fill="#000" font-size="13" textLength="18.091" font-weight="700">19</text><text x="255.277" y="867.786" fill="#000" font-size="13" textLength="103.086">ApiResponse lỗi</text><line x1="181.187" y1="881.852" x2="1798.757" y2="881.852" style="stroke:#000;stroke-width:1;stroke-dasharray:2,2;"/><text x="186.187" y="894.062" fill="#000" font-size="11" textLength="120.103" font-weight="700">[Có đủ seat_status]</text><line x1="872.747" y1="920.789" x2="914.747" y2="920.789" style="stroke:#181818;stroke-width:1;"/><line x1="914.747" y1="920.789" x2="914.747" y2="933.789" style="stroke:#181818;stroke-width:1;"/><line x1="873.747" y1="933.789" x2="914.747" y2="933.789" style="stroke:#181818;stroke-width:1;"/><polygon points="883.747,929.789,873.747,933.789,883.747,937.789,879.747,933.789" fill="#181818" style="stroke:#181818;stroke-width:1;stroke-linejoin:miter;stroke-miterlimit:10;"/><text x="879.747" y="915.723" fill="#000" font-size="13" textLength="18.091" font-weight="700">20</text><text x="901.838" y="915.723" fill="#000" font-size="13" textLength="200.656">Kiểm tra tất cả ghế AVAILABLE</text><path d="M200.187,945.789 L264.629,945.789 L264.629,952.922 L254.629,962.922 L200.187,962.922 L200.187,945.789" style="stroke:#000;stroke-width:1.5;" fill="#EEE"/><rect x="200.187" y="945.789" width="1573.571" height="540.328" fill="none" style="stroke:#000;stroke-width:1.5;"/><text x="215.187" y="958.856" fill="#000" font-size="13" textLength="19.443" font-weight="700">alt</text><text x="279.629" y="958" fill="#000" font-size="11" textLength="166.81" font-weight="700">[Có ghế không AVAILABLE]</text><polygon points="444.334,990.055,434.334,994.055,444.334,998.055,440.334,994.055" fill="#181818" style="stroke:#181818;stroke-width:1;stroke-linejoin:miter;stroke-miterlimit:10;"/><line x1="438.334" y1="994.055" x2="871.747" y2="994.055" style="stroke:#181818;stroke-width:1;stroke-dasharray:2,2;"/><text x="450.334" y="988.989" fill="#000" font-size="13" textLength="18.091" font-weight="700">21</text><text x="472.425" y="988.989" fill="#000" font-size="13" textLength="186.621">throw SEAT_NOT_AVAILABLE</text><polygon points="227.187,1019.188,217.187,1023.188,227.187,1027.188,223.187,1023.188" fill="#181818" style="stroke:#181818;stroke-width:1;stroke-linejoin:miter;stroke-miterlimit:10;"/><line x1="221.187" y1="1023.188" x2="432.334" y2="1023.188" style="stroke:#181818;stroke-width:1;stroke-dasharray:2,2;"/><text x="233.187" y="1018.122" fill="#000" font-size="13" textLength="18.091" font-weight="700">22</text><text x="255.277" y="1018.122" fill="#000" font-size="13" textLength="103.086">ApiResponse lỗi</text><line x1="200.187" y1="1032.188" x2="1773.757" y2="1032.188" style="stroke:#000;stroke-width:1;stroke-dasharray:2,2;"/><text x="205.187" y="1044.398" fill="#000" font-size="11" textLength="146.899" font-weight="700">[Tất cả ghế AVAILABLE]</text><polygon points="1487.514,1067.125,1497.514,1071.125,1487.514,1075.125,1491.514,1071.125" fill="#181818" style="stroke:#181818;stroke-width:1;stroke-linejoin:miter;stroke-miterlimit:10;"/><line x1="872.747" y1="1071.125" x2="1493.514" y2="1071.125" style="stroke:#181818;stroke-width:1;"/><text x="879.747" y="1066.059" fill="#000" font-size="13" textLength="18.091" font-weight="700">23</text><text x="901.838" y="1066.059" fill="#000" font-size="13" textLength="152.648">findById(currentUserId)</text><polygon points="1615.032,1096.258,1625.032,1100.258,1615.032,1104.258,1619.032,1100.258" fill="#181818" style="stroke:#181818;stroke-width:1;stroke-linejoin:miter;stroke-miterlimit:10;"/><line x1="1499.514" y1="1100.258" x2="1621.032" y2="1100.258" style="stroke:#181818;stroke-width:1;"/><text x="1506.514" y="1095.192" fill="#000" font-size="13" textLength="18.091" font-weight="700">24</text><text x="1528.604" y="1095.192" fill="#000" font-size="13" textLength="81.428">SELECT user</text><polygon points="1510.514,1125.391,1500.514,1129.391,1510.514,1133.391,1506.514,1129.391" fill="#181818" style="stroke:#181818;stroke-width:1;stroke-linejoin:miter;stroke-miterlimit:10;"/><line x1="1504.514" y1="1129.391" x2="1626.032" y2="1129.391" style="stroke:#181818;stroke-width:1;stroke-dasharray:2,2;"/><text x="1516.514" y="1124.325" fill="#000" font-size="13" textLength="18.091" font-weight="700">25</text><text x="1538.604" y="1124.325" fill="#000" font-size="13" textLength="29.631">User</text><polygon points="883.747,1154.523,873.747,1158.523,883.747,1162.523,879.747,1158.523" fill="#181818" style="stroke:#181818;stroke-width:1;stroke-linejoin:miter;stroke-miterlimit:10;"/><line x1="877.747" y1="1158.523" x2="1498.514" y2="1158.523" style="stroke:#181818;stroke-width:1;stroke-dasharray:2,2;"/><text x="889.747" y="1153.458" fill="#000" font-size="13" textLength="18.091" font-weight="700">26</text><text x="911.838" y="1153.458" fill="#000" font-size="13" textLength="29.631">User</text><line x1="872.747" y1="1187.656" x2="914.747" y2="1187.656" style="stroke:#181818;stroke-width:1;"/><line x1="914.747" y1="1187.656" x2="914.747" y2="1200.656" style="stroke:#181818;stroke-width:1;"/><line x1="873.747" y1="1200.656" x2="914.747" y2="1200.656" style="stroke:#181818;stroke-width:1;"/><polygon points="883.747,1196.656,873.747,1200.656,883.747,1204.656,879.747,1200.656" fill="#181818" style="stroke:#181818;stroke-width:1;stroke-linejoin:miter;stroke-miterlimit:10;"/><text x="879.747" y="1182.59" fill="#000" font-size="13" textLength="18.091" font-weight="700">27</text><text x="901.838" y="1182.59" fill="#000" font-size="13" textLength="231.874">holdUntil = now + seatHoldMinutes</text><line x1="872.747" y1="1229.789" x2="914.747" y2="1229.789" style="stroke:#181818;stroke-width:1;"/><line x1="914.747" y1="1229.789" x2="914.747" y2="1242.789" style="stroke:#181818;stroke-width:1;"/><line x1="873.747" y1="1242.789" x2="914.747" y2="1242.789" style="stroke:#181818;stroke-width:1;"/><polygon points="883.747,1238.789,873.747,1242.789,883.747,1246.789,879.747,1242.789" fill="#181818" style="stroke:#181818;stroke-width:1;stroke-linejoin:miter;stroke-miterlimit:10;"/><text x="879.747" y="1224.723" fill="#000" font-size="13" textLength="18.091" font-weight="700">28</text><text x="901.838" y="1224.723" fill="#000" font-size="13" textLength="162.132">Tính estimatedTotalPrice</text><polygon points="1334.396,1267.922,1344.396,1271.922,1334.396,1275.922,1338.396,1271.922" fill="#181818" style="stroke:#181818;stroke-width:1;stroke-linejoin:miter;stroke-miterlimit:10;"/><line x1="872.747" y1="1271.922" x2="1340.396" y2="1271.922" style="stroke:#181818;stroke-width:1;"/><text x="879.747" y="1266.856" fill="#000" font-size="13" textLength="18.091" font-weight="700">29</text><text x="901.838" y="1266.856" fill="#000" font-size="13" textLength="140.721">saveAll(seatStatuses)</text><polygon points="1615.032,1327.32,1625.032,1331.32,1615.032,1335.32,1619.032,1331.32" fill="#181818" style="stroke:#181818;stroke-width:1;stroke-linejoin:miter;stroke-miterlimit:10;"/><line x1="1346.396" y1="1331.32" x2="1621.032" y2="1331.32" style="stroke:#181818;stroke-width:1;"/><text x="1353.396" y="1311.122" fill="#000" font-size="13" textLength="18.091" font-weight="700">30</text><text x="1375.487" y="1295.989" fill="#000" font-size="13" textLength="130.825">UPDATE seat_status</text><text x="1375.487" y="1311.122" fill="#000" font-size="13" textLength="92.231">status=HOLD,</text><text x="1375.487" y="1326.254" fill="#000" font-size="13" textLength="122.123">hold_by, hold_until</text><polygon points="1745.757,1356.453,1755.757,1360.453,1745.757,1364.453,1749.757,1360.453" fill="#181818" style="stroke:#181818;stroke-width:1;stroke-linejoin:miter;stroke-miterlimit:10;"/><line x1="872.747" y1="1360.453" x2="1751.757" y2="1360.453" style="stroke:#181818;stroke-width:1;"/><text x="879.747" y="1355.387" fill="#000" font-size="13" textLength="18.091" font-weight="700">31</text><text x="901.838" y="1355.387" fill="#000" font-size="13" textLength="227.449">register afterCommit publishHold()</text><polygon points="444.334,1385.586,434.334,1389.586,444.334,1393.586,440.334,1389.586" fill="#181818" style="stroke:#181818;stroke-width:1;stroke-linejoin:miter;stroke-miterlimit:10;"/><line x1="438.334" y1="1389.586" x2="871.747" y2="1389.586" style="stroke:#181818;stroke-width:1;stroke-dasharray:2,2;"/><text x="450.334" y="1384.52" fill="#000" font-size="13" textLength="18.091" font-weight="700">32</text><text x="472.425" y="1384.52" fill="#000" font-size="13" textLength="121.926">HoldSeatResponse</text><polygon points="227.187,1429.852,217.187,1433.852,227.187,1437.852,223.187,1433.852" fill="#181818" style="stroke:#181818;stroke-width:1;stroke-linejoin:miter;stroke-miterlimit:10;"/><line x1="221.187" y1="1433.852" x2="432.334" y2="1433.852" style="stroke:#181818;stroke-width:1;stroke-dasharray:2,2;"/><text x="233.187" y="1421.219" fill="#000" font-size="13" textLength="18.091" font-weight="700">33</text><text x="255.277" y="1413.653" fill="#000" font-size="13" textLength="83.776">ApiResponse</text><text x="255.277" y="1428.786" fill="#000" font-size="13" textLength="151.036">Seats held successfully</text><polygon points="227.187,1474.117,217.187,1478.117,227.187,1482.117,223.187,1478.117" fill="#181818" style="stroke:#181818;stroke-width:1;stroke-linejoin:miter;stroke-miterlimit:10;"/><line x1="221.187" y1="1478.117" x2="1756.757" y2="1478.117" style="stroke:#181818;stroke-width:1;stroke-dasharray:2,2;"/><text x="233.187" y="1465.485" fill="#000" font-size="13" textLength="18.091" font-weight="700">34</text><text x="255.277" y="1457.918" fill="#000" font-size="13" textLength="193.515">/topic/seatmap/{showtimeId}</text><text x="255.277" y="1473.051" fill="#000" font-size="13" textLength="78.419">HOLD event</text><?plantuml-src ZLNBRY975Dtp5LUpmeejbEqeOwbvEEuCDeHkx0qIAfeoNQAwgbDLZSECiiewYsWMiyfYD1f5UIcHafLPP44q_y6Vv5Ot3TqynaR2OFhSSr_dL1bcE0MFVfDG4L1eCZ9H988p-9Aj5d_295mz_0jczV0k0XEk5Z-nIeKaHeea6b65tmCZ5JGIRMI4_yT46HQmc0W3pteKdo8rCHxbD31CYYwPq6T0D5oqIjYwb5Cc9WqfZ9ASKsKn3R_NBg4irQNaununjCqYXhngnh1g1FSS_o3b6k96CRSmhzMxSHjbf1VAUyCYsgEnr0pxcQV8oywjxrwrXhrMjxDNXcU8IVHEHClnXvxl-7rlFwYlgIh3-rXBXXiJGqP4K-XARIQAUb-tBQ1PFvAscumuqs4sfLklKidd3sVdE5bu3WrSrGyYtvvQ_Yf0Vtm7__suMhofL122G3jUX7OxdWyr4hFQxFFQA1kQheKuve5u3Nez6tTy2XeBSCSQlXi89p6XLEmLiKjz3dLA56OtSae5LcE9jmbk26VO8MhBxsoUsNNXio2amRIAevbnQdfMXDgSeAguWPkFVwqMxmqe6yhjjYk0hpJmRCjkGYNliz5VTjhDeNq-RBjNhjzgfW5PndmmJinwLCTIuBJvQl4MvKmvVc-44k9m-KiCawtkAmM2yrmwI6A7OxUXgsfJiaNcY1AulNhuC8SWKOhY4XFirSN9egKMl-5AyNTcvbRtz5kpprBK87BTCJ5sq4WpMf-xu-fsEITPP0cEySqw1dcjTglXRpO992L80_3vsO4qkI4EaPPwsm2FjpzRRp-7MbkI4QSNKbtJU-lcwg7fbPsqRXrZ-h4bgyzpEaTacnY8wW6fRfXtw7P7W-YXJgq5NtNSw_I7WRZezA3VRTg3fJYi_Tgu3APqN30ee2RraTHbSJ1jljZ6dMVrMlc_39V_Y0cOvUzHQjkVYrMcgDBC3XhYkkCFBphzw-O6_wWPB2WpnFBl0tdt4nUxUOdM-Hxl2KNiZV71GB1wUBy-X9mRnsqxzNPhos7Rj6aom3HhU8k3mklnFW_7FQdVJS_-4uhUQNvpYAybclfoRVP-wlMJKkWMlwD1Up2Ka6kv5HFqTp45jj8YKk2naildM5yOnk4521pcP-ckhIUlc4WCrOzJ-Ci_H0Xu1B88VJdsfI6yg_32_KJwFVzeCgCEvrMzCGBDhRibE6BXpA15aGv4zld2tWUd0s6x78xcfscxmyJsUxIuMmyf5PsWBUtjUeT_6pB2kmVYxCuj7bYV4EVb-eR8vLPvcYe78ZtC8AHy33e90ghrNSBvl1oFLMwYQqR6BAZP_YCIrrvlJq6yfkq4WCvGYmMbYt4b_yJt_m00?></g></svg>