<svg xmlns="http://www.w3.org/2000/svg" xmlns:xlink="http://www.w3.org/1999/xlink" version="1.1" data-diagram-type="ACTIVITY" style="width:2670px;height:2080px;background:#FFFFFF;" width="2670px" height="2080px" viewBox="0 0 2670 2080" zoomAndPan="magnify" preserveAspectRatio="none" contentStyleType="text/css"><?plantuml 1.2026.7beta11?><defs/><g font-family="sans-serif" lengthAdjust="spacing"><g class="title" data-source-line="1"><text x="1098.794" y="42.277" fill="#000" font-size="24" textLength="471.293" font-weight="700">Activity Diagram - Chọn và giữ ghế</text></g><rect x="20" y="67.154" width="2623.882" height="23.281" fill="none" style="stroke:none;"/><ellipse cx="178.781" cy="105.436" rx="10" ry="10" fill="#263238" style="stroke:#222;stroke-width:1;"/><rect x="26" y="135.436" width="305.563" height="38.625" fill="#E3F2FD" style="stroke:#1976D2;stroke-width:0.5;" rx="12.5" ry="12.5"/><text x="36" y="160.287" fill="#212121" font-size="16" textLength="285.563">Chọn phim, rạp, ngày và suất chiếu</text><rect x="65.473" y="428.561" width="226.617" height="38.625" fill="#E3F2FD" style="stroke:#1976D2;stroke-width:0.5;" rx="12.5" ry="12.5"/><text x="75.473" y="453.412" fill="#212121" font-size="16" textLength="206.617">Chọn một hoặc nhiều ghế</text><rect x="303.309" y="1239.686" width="194.656" height="38.625" fill="#E3F2FD" style="stroke:#1976D2;stroke-width:0.5;" rx="12.5" ry="12.5"/><text x="313.309" y="1264.537" fill="#212121" font-size="16" textLength="174.656">Xác nhận tạo booking</text><ellipse cx="243.602" cy="1880.936" rx="11" ry="11" fill="none" style="stroke:#222;stroke-width:1;"/><ellipse cx="243.602" cy="1880.936" rx="6" ry="6" fill="#222" style="stroke:#222;stroke-width:1;"/><rect x="458.531" y="1576.811" width="198.281" height="38.625" fill="#FFEBEE" style="stroke:#1976D2;stroke-width:0.5;" rx="12.5" ry="12.5"/><text x="468.531" y="1601.662" fill="#212121" font-size="16" textLength="178.281">Trả ghế về AVAILABLE</text><rect x="445.063" y="1635.436" width="225.219" height="38.625" fill="#FFEBEE" style="stroke:#1976D2;stroke-width:0.5;" rx="12.5" ry="12.5"/><text x="455.063" y="1660.287" fill="#212121" font-size="16" textLength="205.219">Xóa hold_by và hold_until</text><rect x="436.828" y="1694.061" width="241.688" height="38.625" fill="#FFEBEE" style="stroke:#1976D2;stroke-width:0.5;" rx="12.5" ry="12.5"/><text x="446.828" y="1718.912" fill="#212121" font-size="16" textLength="221.688">Trả lỗi hết thời gian giữ ghế</text><line x1="20" y1="67.154" x2="20" y2="2059.811" style="stroke:#000;stroke-width:1.5;"/><rect x="893.613" y="194.061" width="186.109" height="38.625" fill="#E3F2FD" style="stroke:#1976D2;stroke-width:0.5;" rx="12.5" ry="12.5"/><text x="903.613" y="218.912" fill="#212121" font-size="16" textLength="166.109">Gọi API tải sơ đồ ghế</text><rect x="905.477" y="369.936" width="162.383" height="38.625" fill="#E3F2FD" style="stroke:#1976D2;stroke-width:0.5;" rx="12.5" ry="12.5"/><text x="915.477" y="394.787" fill="#212121" font-size="16" textLength="142.383">Hiển thị seat map</text><rect x="915.625" y="487.186" width="142.086" height="38.625" fill="#E3F2FD" style="stroke:#1976D2;stroke-width:0.5;" rx="12.5" ry="12.5"/><text x="925.625" y="512.037" fill="#212121" font-size="16" textLength="122.086">Gọi API giữ ghế</text><rect x="688.516" y="876.561" width="192.594" height="57.25" fill="#FFEBEE" style="stroke:#1976D2;stroke-width:0.5;" rx="12.5" ry="12.5"/><text x="698.516" y="901.412" fill="#212121" font-size="16" textLength="172.594">Hiển thị thông báo lỗi</text><text x="698.516" y="920.037" fill="#212121" font-size="16" textLength="148.641">và tải lại seat map</text><ellipse cx="784.813" cy="979.811" rx="11" ry="11" fill="none" style="stroke:#222;stroke-width:1;"/><ellipse cx="784.813" cy="979.811" rx="6" ry="6" fill="#222" style="stroke:#222;stroke-width:1;"/><rect x="1079.262" y="725.686" width="258.523" height="38.625" fill="#E8F5E9" style="stroke:#1976D2;stroke-width:0.5;" rx="12.5" ry="12.5"/><text x="1089.262" y="750.537" fill="#212121" font-size="16" textLength="238.523">Cập nhật seat_status = HOLD</text><rect x="1091.938" y="784.311" width="233.172" height="38.625" fill="#E8F5E9" style="stroke:#1976D2;stroke-width:0.5;" rx="12.5" ry="12.5"/><text x="1101.938" y="809.162" fill="#212121" font-size="16" textLength="213.172">Cập nhật hold_by = userId</text><rect x="1049.441" y="857.936" width="318.164" height="38.625" fill="#E8F5E9" style="stroke:#1976D2;stroke-width:0.5;" rx="12.5" ry="12.5"/><text x="1059.441" y="882.787" fill="#212121" font-size="16" textLength="298.164">Cập nhật hold_until = now + timeout</text><rect x="1119.363" y="931.561" width="178.32" height="38.625" fill="#E8F5E9" style="stroke:#1976D2;stroke-width:0.5;" rx="12.5" ry="12.5"/><text x="1129.363" y="956.412" fill="#212121" font-size="16" textLength="158.32">Commit transaction</text><rect x="1079.578" y="1063.811" width="257.891" height="38.625" fill="#E3F2FD" style="stroke:#1976D2;stroke-width:0.5;" rx="12.5" ry="12.5"/><text x="1089.578" y="1088.662" fill="#212121" font-size="16" textLength="237.891">Nhận WebSocket seat update</text><rect x="1074.902" y="1122.436" width="267.242" height="38.625" fill="#E8F5E9" style="stroke:#1976D2;stroke-width:0.5;" rx="12.5" ry="12.5"/><text x="1084.902" y="1147.287" fill="#212121" font-size="16" textLength="247.242">Hiển thị ghế ở trạng thái HOLD</text><rect x="1050.492" y="1181.061" width="316.063" height="38.625" fill="#E3F2FD" style="stroke:#1976D2;stroke-width:0.5;" rx="12.5" ry="12.5"/><text x="1060.492" y="1205.912" fill="#212121" font-size="16" textLength="296.063">Bắt đầu countdown thời gian giữ ghế</text><rect x="1120.117" y="1298.311" width="176.813" height="38.625" fill="#E3F2FD" style="stroke:#1976D2;stroke-width:0.5;" rx="12.5" ry="12.5"/><text x="1130.117" y="1323.162" fill="#212121" font-size="16" textLength="156.813">Gọi API tạo booking</text><rect x="973.41" y="1752.686" width="156.156" height="38.625" fill="#E3F2FD" style="stroke:#1976D2;stroke-width:0.5;" rx="12.5" ry="12.5"/><text x="983.41" y="1777.537" fill="#212121" font-size="16" textLength="136.156">Dừng countdown</text><rect x="891.109" y="1811.311" width="320.758" height="38.625" fill="#E8F5E9" style="stroke:#1976D2;stroke-width:0.5;" rx="12.5" ry="12.5"/><text x="901.109" y="1836.162" fill="#212121" font-size="16" textLength="300.758">Điều hướng đến màn hình thanh toán</text><rect x="1287.48" y="1811.311" width="156.156" height="38.625" fill="#E3F2FD" style="stroke:#1976D2;stroke-width:0.5;" rx="12.5" ry="12.5"/><text x="1297.48" y="1836.162" fill="#212121" font-size="16" textLength="136.156">Dừng countdown</text><rect x="1272.219" y="1869.936" width="186.68" height="57.25" fill="#FFEBEE" style="stroke:#1976D2;stroke-width:0.5;" rx="12.5" ry="12.5"/><text x="1282.219" y="1894.787" fill="#212121" font-size="16" textLength="148.828">Hiển thị thông báo</text><text x="1282.219" y="1913.412" fill="#212121" font-size="16" textLength="166.68">hết thời gian giữ ghế</text><rect x="1291.668" y="1947.186" width="147.781" height="38.625" fill="#E3F2FD" style="stroke:#1976D2;stroke-width:0.5;" rx="12.5" ry="12.5"/><text x="1301.668" y="1972.037" fill="#212121" font-size="16" textLength="127.781">Tải lại seat map</text><ellipse cx="1365.559" cy="2016.811" rx="11" ry="11" fill="none" style="stroke:#222;stroke-width:1;"/><ellipse cx="1365.559" cy="2016.811" rx="6" ry="6" fill="#222" style="stroke:#222;stroke-width:1;"/><line x1="682.516" y1="67.154" x2="682.516" y2="2059.811" style="stroke:#000;stroke-width:1.5;"/><rect x="1625.422" y="252.686" width="314.281" height="38.625" fill="#E3F2FD" style="stroke:#1976D2;stroke-width:0.5;" rx="12.5" ry="12.5"/><text x="1635.422" y="277.537" fill="#212121" font-size="16" textLength="294.281">Lấy danh sách ghế và trạng thái ghế</text><rect x="1688.078" y="311.311" width="188.969" height="38.625" fill="#E3F2FD" style="stroke:#1976D2;stroke-width:0.5;" rx="12.5" ry="12.5"/><text x="1698.078" y="336.162" fill="#212121" font-size="16" textLength="168.969">Trả dữ liệu sơ đồ ghế</text><rect x="1673.398" y="545.811" width="218.328" height="38.625" fill="#E3F2FD" style="stroke:#1976D2;stroke-width:0.5;" rx="12.5" ry="12.5"/><text x="1683.398" y="570.662" fill="#212121" font-size="16" textLength="198.328">Mở database transaction</text><rect x="1662.391" y="604.436" width="240.344" height="57.25" fill="#E3F2FD" style="stroke:#1976D2;stroke-width:0.5;" rx="12.5" ry="12.5"/><text x="1672.391" y="629.287" fill="#212121" font-size="16" textLength="220.344">Khóa và kiểm tra trạng thái</text><text x="1672.391" y="647.912" fill="#212121" font-size="16" textLength="150.547">các ghế được chọn</text><polygon points="1672.07,681.686,1893.055,681.686,1905.055,693.686,1893.055,705.686,1672.07,705.686,1660.07,693.686,1672.07,681.686" fill="#FFF9C4" style="stroke:#F9A825;stroke-width:0.5;stroke-linejoin:miter;stroke-miterlimit:10;"/><text x="1672.07" y="699.225" fill="#212121" font-size="16" textLength="220.984">Tất cả ghế đều AVAILABLE?</text><text x="1609.352" y="689.912" fill="#000" font-size="16" textLength="50.719">Không</text><text x="1905.055" y="689.912" fill="#000" font-size="16" textLength="20.961">Có</text><rect x="1469.063" y="725.686" width="183.289" height="38.625" fill="#FFEBEE" style="stroke:#1976D2;stroke-width:0.5;" rx="12.5" ry="12.5"/><text x="1479.063" y="750.537" fill="#212121" font-size="16" textLength="163.289">Rollback transaction</text><rect x="1468.898" y="784.311" width="183.617" height="57.25" fill="#FFEBEE" style="stroke:#1976D2;stroke-width:0.5;" rx="12.5" ry="12.5"/><text x="1478.898" y="809.162" fill="#212121" font-size="16" textLength="163.617">Trả lỗi ghế vừa được</text><text x="1478.898" y="827.787" fill="#212121" font-size="16" textLength="131.719">người khác chọn</text><rect x="1888.965" y="1356.936" width="230.906" height="38.625" fill="#E3F2FD" style="stroke:#1976D2;stroke-width:0.5;" rx="12.5" ry="12.5"/><text x="1898.965" y="1381.787" fill="#212121" font-size="16" textLength="210.906">Kiểm tra lại trạng thái ghế</text><rect x="1890.066" y="1415.561" width="228.703" height="38.625" fill="#E3F2FD" style="stroke:#1976D2;stroke-width:0.5;" rx="12.5" ry="12.5"/><text x="1900.066" y="1440.412" fill="#212121" font-size="16" textLength="208.703">Kiểm tra hold_by = userId</text><rect x="1918.832" y="1474.186" width="171.172" height="38.625" fill="#E3F2FD" style="stroke:#1976D2;stroke-width:0.5;" rx="12.5" ry="12.5"/><text x="1928.832" y="1499.037" fill="#212121" font-size="16" textLength="151.172">Kiểm tra hold_until</text><polygon points="1902.559,1532.811,2106.277,1532.811,2118.277,1544.811,2106.277,1556.811,1902.559,1556.811,1890.559,1544.811,1902.559,1532.811" fill="#FFF9C4" style="stroke:#F9A825;stroke-width:0.5;stroke-linejoin:miter;stroke-miterlimit:10;"/><text x="1902.559" y="1550.35" fill="#212121" font-size="16" textLength="203.719">Ghế vẫn được giữ hợp lệ?</text><text x="1869.598" y="1541.037" fill="#000" font-size="16" textLength="20.961">Có</text><text x="2118.277" y="1541.037" fill="#000" font-size="16" textLength="50.719">Không</text><rect x="1692.887" y="1576.811" width="308.992" height="38.625" fill="#E8F5E9" style="stroke:#1976D2;stroke-width:0.5;" rx="12.5" ry="12.5"/><text x="1702.887" y="1601.662" fill="#212121" font-size="16" textLength="288.992">Tạo booking với trạng thái PENDING</text><rect x="1741.391" y="1635.436" width="211.984" height="38.625" fill="#E8F5E9" style="stroke:#1976D2;stroke-width:0.5;" rx="12.5" ry="12.5"/><text x="1751.391" y="1660.287" fill="#212121" font-size="16" textLength="191.984">Tạo các booking_details</text><rect x="1751.125" y="1694.061" width="192.516" height="38.625" fill="#E8F5E9" style="stroke:#1976D2;stroke-width:0.5;" rx="12.5" ry="12.5"/><text x="1761.125" y="1718.912" fill="#212121" font-size="16" textLength="172.516">Trả thông tin booking</text><line x1="1462.898" y1="67.154" x2="1462.898" y2="2059.811" style="stroke:#000;stroke-width:1.5;"/><rect x="2179.996" y="1005.186" width="333.961" height="38.625" fill="#E3F2FD" style="stroke:#1976D2;stroke-width:0.5;" rx="12.5" ry="12.5"/><text x="2189.996" y="1030.037" fill="#212121" font-size="16" textLength="313.961">Publish sự kiện cập nhật trạng thái ghế</text><rect x="2370.32" y="1752.686" width="267.383" height="38.625" fill="#E3F2FD" style="stroke:#1976D2;stroke-width:0.5;" rx="12.5" ry="12.5"/><text x="2380.32" y="1777.537" fill="#212121" font-size="16" textLength="247.383">Publish sự kiện ghế AVAILABLE</text><line x1="2173.996" y1="67.154" x2="2173.996" y2="2059.811" style="stroke:#000;stroke-width:1.5;"/><line x1="2641.703" y1="67.154" x2="2641.703" y2="2059.811" style="stroke:#000;stroke-width:1.5;"/><line x1="178.781" y1="115.436" x2="178.781" y2="135.436" style="stroke:#181818;stroke-width:1;"/><polygon points="174.781,125.436,178.781,135.436,182.781,125.436,178.781,129.436" fill="#181818" style="stroke:#181818;stroke-width:1;stroke-linejoin:miter;stroke-miterlimit:10;"/><line x1="557.672" y1="1615.436" x2="557.672" y2="1635.436" style="stroke:#181818;stroke-width:1;"/><polygon points="553.672,1625.436,557.672,1635.436,561.672,1625.436,557.672,1629.436" fill="#181818" style="stroke:#181818;stroke-width:1;stroke-linejoin:miter;stroke-miterlimit:10;"/><line x1="557.672" y1="1674.061" x2="557.672" y2="1694.061" style="stroke:#181818;stroke-width:1;"/><polygon points="553.672,1684.061,557.672,1694.061,561.672,1684.061,557.672,1688.061" fill="#181818" style="stroke:#181818;stroke-width:1;stroke-linejoin:miter;stroke-miterlimit:10;"/><line x1="784.813" y1="933.811" x2="784.813" y2="968.811" style="stroke:#181818;stroke-width:1;"/><polygon points="780.813,958.811,784.813,968.811,788.813,958.811,784.813,962.811" fill="#181818" style="stroke:#181818;stroke-width:1;stroke-linejoin:miter;stroke-miterlimit:10;"/><line x1="1208.523" y1="764.311" x2="1208.523" y2="784.311" style="stroke:#181818;stroke-width:1;"/><polygon points="1204.523,774.311,1208.523,784.311,1212.523,774.311,1208.523,778.311" fill="#181818" style="stroke:#181818;stroke-width:1;stroke-linejoin:miter;stroke-miterlimit:10;"/><line x1="1208.523" y1="822.936" x2="1208.523" y2="857.936" style="stroke:#181818;stroke-width:1;"/><polygon points="1204.523,847.936,1208.523,857.936,1212.523,847.936,1208.523,851.936" fill="#181818" style="stroke:#181818;stroke-width:1;stroke-linejoin:miter;stroke-miterlimit:10;"/><line x1="1208.523" y1="896.561" x2="1208.523" y2="931.561" style="stroke:#181818;stroke-width:1;"/><polygon points="1204.523,921.561,1208.523,931.561,1212.523,921.561,1208.523,925.561" fill="#181818" style="stroke:#181818;stroke-width:1;stroke-linejoin:miter;stroke-miterlimit:10;"/><line x1="1208.523" y1="1102.436" x2="1208.523" y2="1122.436" style="stroke:#181818;stroke-width:1;"/><polygon points="1204.523,1112.436,1208.523,1122.436,1212.523,1112.436,1208.523,1116.436" fill="#181818" style="stroke:#181818;stroke-width:1;stroke-linejoin:miter;stroke-miterlimit:10;"/><line x1="1208.523" y1="1161.061" x2="1208.523" y2="1181.061" style="stroke:#181818;stroke-width:1;"/><polygon points="1204.523,1171.061,1208.523,1181.061,1212.523,1171.061,1208.523,1175.061" fill="#181818" style="stroke:#181818;stroke-width:1;stroke-linejoin:miter;stroke-miterlimit:10;"/><line x1="1051.488" y1="1791.311" x2="1051.488" y2="1811.311" style="stroke:#181818;stroke-width:1;"/><polygon points="1047.488,1801.311,1051.488,1811.311,1055.488,1801.311,1051.488,1805.311" fill="#181818" style="stroke:#181818;stroke-width:1;stroke-linejoin:miter;stroke-miterlimit:10;"/><line x1="1365.559" y1="1849.936" x2="1365.559" y2="1869.936" style="stroke:#181818;stroke-width:1;"/><polygon points="1361.559,1859.936,1365.559,1869.936,1369.559,1859.936,1365.559,1863.936" fill="#181818" style="stroke:#181818;stroke-width:1;stroke-linejoin:miter;stroke-miterlimit:10;"/><line x1="1365.559" y1="1927.186" x2="1365.559" y2="1947.186" style="stroke:#181818;stroke-width:1;"/><polygon points="1361.559,1937.186,1365.559,1947.186,1369.559,1937.186,1365.559,1941.186" fill="#181818" style="stroke:#181818;stroke-width:1;stroke-linejoin:miter;stroke-miterlimit:10;"/><line x1="1365.559" y1="1985.811" x2="1365.559" y2="2005.811" style="stroke:#181818;stroke-width:1;"/><polygon points="1361.559,1995.811,1365.559,2005.811,1369.559,1995.811,1365.559,1999.811" fill="#181818" style="stroke:#181818;stroke-width:1;stroke-linejoin:miter;stroke-miterlimit:10;"/><line x1="1782.563" y1="291.311" x2="1782.563" y2="311.311" style="stroke:#181818;stroke-width:1;"/><polygon points="1778.563,301.311,1782.563,311.311,1786.563,301.311,1782.563,305.311" fill="#181818" style="stroke:#181818;stroke-width:1;stroke-linejoin:miter;stroke-miterlimit:10;"/><line x1="1782.563" y1="584.436" x2="1782.563" y2="604.436" style="stroke:#181818;stroke-width:1;"/><polygon points="1778.563,594.436,1782.563,604.436,1786.563,594.436,1782.563,598.436" fill="#181818" style="stroke:#181818;stroke-width:1;stroke-linejoin:miter;stroke-miterlimit:10;"/><line x1="1560.707" y1="764.311" x2="1560.707" y2="784.311" style="stroke:#181818;stroke-width:1;"/><polygon points="1556.707,774.311,1560.707,784.311,1564.707,774.311,1560.707,778.311" fill="#181818" style="stroke:#181818;stroke-width:1;stroke-linejoin:miter;stroke-miterlimit:10;"/><line x1="2004.418" y1="1395.561" x2="2004.418" y2="1415.561" style="stroke:#181818;stroke-width:1;"/><polygon points="2000.418,1405.561,2004.418,1415.561,2008.418,1405.561,2004.418,1409.561" fill="#181818" style="stroke:#181818;stroke-width:1;stroke-linejoin:miter;stroke-miterlimit:10;"/><line x1="2004.418" y1="1454.186" x2="2004.418" y2="1474.186" style="stroke:#181818;stroke-width:1;"/><polygon points="2000.418,1464.186,2004.418,1474.186,2008.418,1464.186,2004.418,1468.186" fill="#181818" style="stroke:#181818;stroke-width:1;stroke-linejoin:miter;stroke-miterlimit:10;"/><line x1="1847.383" y1="1615.436" x2="1847.383" y2="1635.436" style="stroke:#181818;stroke-width:1;"/><polygon points="1843.383,1625.436,1847.383,1635.436,1851.383,1625.436,1847.383,1629.436" fill="#181818" style="stroke:#181818;stroke-width:1;stroke-linejoin:miter;stroke-miterlimit:10;"/><line x1="1847.383" y1="1674.061" x2="1847.383" y2="1694.061" style="stroke:#181818;stroke-width:1;"/><polygon points="1843.383,1684.061,1847.383,1694.061,1851.383,1684.061,1847.383,1688.061" fill="#181818" style="stroke:#181818;stroke-width:1;stroke-linejoin:miter;stroke-miterlimit:10;"/><line x1="1890.559" y1="1544.811" x2="1847.383" y2="1544.811" style="stroke:#181818;stroke-width:1;"/><line x1="1847.383" y1="1544.811" x2="1847.383" y2="1576.811" style="stroke:#181818;stroke-width:1;"/><polygon points="1843.383,1566.811,1847.383,1576.811,1851.383,1566.811,1847.383,1570.811" fill="#181818" style="stroke:#181818;stroke-width:1;stroke-linejoin:miter;stroke-miterlimit:10;"/><line x1="2004.418" y1="1512.811" x2="2004.418" y2="1532.811" style="stroke:#181818;stroke-width:1;"/><polygon points="2000.418,1522.811,2004.418,1532.811,2008.418,1522.811,2004.418,1526.811" fill="#181818" style="stroke:#181818;stroke-width:1;stroke-linejoin:miter;stroke-miterlimit:10;"/><line x1="1660.07" y1="693.686" x2="1560.707" y2="693.686" style="stroke:#181818;stroke-width:1;"/><line x1="1560.707" y1="693.686" x2="1560.707" y2="725.686" style="stroke:#181818;stroke-width:1;"/><polygon points="1556.707,715.686,1560.707,725.686,1564.707,715.686,1560.707,719.686" fill="#181818" style="stroke:#181818;stroke-width:1;stroke-linejoin:miter;stroke-miterlimit:10;"/><line x1="1782.563" y1="661.686" x2="1782.563" y2="681.686" style="stroke:#181818;stroke-width:1;"/><polygon points="1778.563,671.686,1782.563,681.686,1786.563,671.686,1782.563,675.686" fill="#181818" style="stroke:#181818;stroke-width:1;stroke-linejoin:miter;stroke-miterlimit:10;"/><line x1="178.781" y1="174.061" x2="178.781" y2="179.061" style="stroke:#181818;stroke-width:1;"/><line x1="178.781" y1="179.061" x2="986.668" y2="179.061" style="stroke:#181818;stroke-width:1;"/><line x1="986.668" y1="179.061" x2="986.668" y2="194.061" style="stroke:#181818;stroke-width:1;"/><polygon points="982.668,184.061,986.668,194.061,990.668,184.061,986.668,188.061" fill="#181818" style="stroke:#181818;stroke-width:1;stroke-linejoin:miter;stroke-miterlimit:10;"/><line x1="986.668" y1="232.686" x2="986.668" y2="237.686" style="stroke:#181818;stroke-width:1;"/><line x1="986.668" y1="237.686" x2="1782.563" y2="237.686" style="stroke:#181818;stroke-width:1;"/><line x1="1782.563" y1="237.686" x2="1782.563" y2="252.686" style="stroke:#181818;stroke-width:1;"/><polygon points="1778.563,242.686,1782.563,252.686,1786.563,242.686,1782.563,246.686" fill="#181818" style="stroke:#181818;stroke-width:1;stroke-linejoin:miter;stroke-miterlimit:10;"/><line x1="1782.563" y1="349.936" x2="1782.563" y2="354.936" style="stroke:#181818;stroke-width:1;"/><line x1="1782.563" y1="354.936" x2="986.668" y2="354.936" style="stroke:#181818;stroke-width:1;"/><line x1="986.668" y1="354.936" x2="986.668" y2="369.936" style="stroke:#181818;stroke-width:1;"/><polygon points="982.668,359.936,986.668,369.936,990.668,359.936,986.668,363.936" fill="#181818" style="stroke:#181818;stroke-width:1;stroke-linejoin:miter;stroke-miterlimit:10;"/><line x1="986.668" y1="408.561" x2="986.668" y2="413.561" style="stroke:#181818;stroke-width:1;"/><line x1="986.668" y1="413.561" x2="178.781" y2="413.561" style="stroke:#181818;stroke-width:1;"/><line x1="178.781" y1="413.561" x2="178.781" y2="428.561" style="stroke:#181818;stroke-width:1;"/><polygon points="174.781,418.561,178.781,428.561,182.781,418.561,178.781,422.561" fill="#181818" style="stroke:#181818;stroke-width:1;stroke-linejoin:miter;stroke-miterlimit:10;"/><line x1="178.781" y1="467.186" x2="178.781" y2="472.186" style="stroke:#181818;stroke-width:1;"/><line x1="178.781" y1="472.186" x2="986.668" y2="472.186" style="stroke:#181818;stroke-width:1;"/><line x1="986.668" y1="472.186" x2="986.668" y2="487.186" style="stroke:#181818;stroke-width:1;"/><polygon points="982.668,477.186,986.668,487.186,990.668,477.186,986.668,481.186" fill="#181818" style="stroke:#181818;stroke-width:1;stroke-linejoin:miter;stroke-miterlimit:10;"/><line x1="986.668" y1="525.811" x2="986.668" y2="530.811" style="stroke:#181818;stroke-width:1;"/><line x1="986.668" y1="530.811" x2="1782.563" y2="530.811" style="stroke:#181818;stroke-width:1;"/><line x1="1782.563" y1="530.811" x2="1782.563" y2="545.811" style="stroke:#181818;stroke-width:1;"/><polygon points="1778.563,535.811,1782.563,545.811,1786.563,535.811,1782.563,539.811" fill="#181818" style="stroke:#181818;stroke-width:1;stroke-linejoin:miter;stroke-miterlimit:10;"/><line x1="1560.707" y1="841.561" x2="1560.707" y2="859.061" style="stroke:#181818;stroke-width:1;"/><line x1="1560.707" y1="859.061" x2="784.813" y2="859.061" style="stroke:#181818;stroke-width:1;"/><line x1="784.813" y1="859.061" x2="784.813" y2="876.561" style="stroke:#181818;stroke-width:1;"/><polygon points="780.813,866.561,784.813,876.561,788.813,866.561,784.813,870.561" fill="#181818" style="stroke:#181818;stroke-width:1;stroke-linejoin:miter;stroke-miterlimit:10;"/><line x1="1208.523" y1="970.186" x2="1208.523" y2="987.686" style="stroke:#181818;stroke-width:1;"/><line x1="1208.523" y1="987.686" x2="2346.977" y2="987.686" style="stroke:#181818;stroke-width:1;"/><line x1="2346.977" y1="987.686" x2="2346.977" y2="1005.186" style="stroke:#181818;stroke-width:1;"/><polygon points="2342.977,995.186,2346.977,1005.186,2350.977,995.186,2346.977,999.186" fill="#181818" style="stroke:#181818;stroke-width:1;stroke-linejoin:miter;stroke-miterlimit:10;"/><line x1="2346.977" y1="1043.811" x2="2346.977" y2="1048.811" style="stroke:#181818;stroke-width:1;"/><line x1="2346.977" y1="1048.811" x2="1208.523" y2="1048.811" style="stroke:#181818;stroke-width:1;"/><line x1="1208.523" y1="1048.811" x2="1208.523" y2="1063.811" style="stroke:#181818;stroke-width:1;"/><polygon points="1204.523,1053.811,1208.523,1063.811,1212.523,1053.811,1208.523,1057.811" fill="#181818" style="stroke:#181818;stroke-width:1;stroke-linejoin:miter;stroke-miterlimit:10;"/><line x1="1208.523" y1="1219.686" x2="1208.523" y2="1224.686" style="stroke:#181818;stroke-width:1;"/><line x1="1208.523" y1="1224.686" x2="400.637" y2="1224.686" style="stroke:#181818;stroke-width:1;"/><line x1="400.637" y1="1224.686" x2="400.637" y2="1239.686" style="stroke:#181818;stroke-width:1;"/><polygon points="396.637,1229.686,400.637,1239.686,404.637,1229.686,400.637,1233.686" fill="#181818" style="stroke:#181818;stroke-width:1;stroke-linejoin:miter;stroke-miterlimit:10;"/><line x1="400.637" y1="1278.311" x2="400.637" y2="1283.311" style="stroke:#181818;stroke-width:1;"/><line x1="400.637" y1="1283.311" x2="1208.523" y2="1283.311" style="stroke:#181818;stroke-width:1;"/><line x1="1208.523" y1="1283.311" x2="1208.523" y2="1298.311" style="stroke:#181818;stroke-width:1;"/><polygon points="1204.523,1288.311,1208.523,1298.311,1212.523,1288.311,1208.523,1292.311" fill="#181818" style="stroke:#181818;stroke-width:1;stroke-linejoin:miter;stroke-miterlimit:10;"/><line x1="1208.523" y1="1336.936" x2="1208.523" y2="1341.936" style="stroke:#181818;stroke-width:1;"/><line x1="1208.523" y1="1341.936" x2="2004.418" y2="1341.936" style="stroke:#181818;stroke-width:1;"/><line x1="2004.418" y1="1341.936" x2="2004.418" y2="1356.936" style="stroke:#181818;stroke-width:1;"/><polygon points="2000.418,1346.936,2004.418,1356.936,2008.418,1346.936,2004.418,1350.936" fill="#181818" style="stroke:#181818;stroke-width:1;stroke-linejoin:miter;stroke-miterlimit:10;"/><line x1="1847.383" y1="1732.686" x2="1847.383" y2="1737.686" style="stroke:#181818;stroke-width:1;"/><line x1="1847.383" y1="1737.686" x2="1051.488" y2="1737.686" style="stroke:#181818;stroke-width:1;"/><line x1="1051.488" y1="1737.686" x2="1051.488" y2="1752.686" style="stroke:#181818;stroke-width:1;"/><polygon points="1047.488,1742.686,1051.488,1752.686,1055.488,1742.686,1051.488,1746.686" fill="#181818" style="stroke:#181818;stroke-width:1;stroke-linejoin:miter;stroke-miterlimit:10;"/><line x1="1051.488" y1="1849.936" x2="1051.488" y2="1854.936" style="stroke:#181818;stroke-width:1;"/><line x1="1051.488" y1="1854.936" x2="243.602" y2="1854.936" style="stroke:#181818;stroke-width:1;"/><line x1="243.602" y1="1854.936" x2="243.602" y2="1869.936" style="stroke:#181818;stroke-width:1;"/><polygon points="239.602,1859.936,243.602,1869.936,247.602,1859.936,243.602,1863.936" fill="#181818" style="stroke:#181818;stroke-width:1;stroke-linejoin:miter;stroke-miterlimit:10;"/><line x1="557.672" y1="1732.686" x2="557.672" y2="1737.686" style="stroke:#181818;stroke-width:1;"/><line x1="557.672" y1="1737.686" x2="2504.012" y2="1737.686" style="stroke:#181818;stroke-width:1;"/><line x1="2504.012" y1="1737.686" x2="2504.012" y2="1752.686" style="stroke:#181818;stroke-width:1;"/><polygon points="2500.012,1742.686,2504.012,1752.686,2508.012,1742.686,2504.012,1746.686" fill="#181818" style="stroke:#181818;stroke-width:1;stroke-linejoin:miter;stroke-miterlimit:10;"/><line x1="2504.012" y1="1791.311" x2="2504.012" y2="1796.311" style="stroke:#181818;stroke-width:1;"/><line x1="2504.012" y1="1796.311" x2="1365.559" y2="1796.311" style="stroke:#181818;stroke-width:1;"/><line x1="1365.559" y1="1796.311" x2="1365.559" y2="1811.311" style="stroke:#181818;stroke-width:1;"/><polygon points="1361.559,1801.311,1365.559,1811.311,1369.559,1801.311,1365.559,1805.311" fill="#181818" style="stroke:#181818;stroke-width:1;stroke-linejoin:miter;stroke-miterlimit:10;"/><line x1="2118.277" y1="1544.811" x2="2130.277" y2="1544.811" style="stroke:#181818;stroke-width:1;"/><line x1="2130.277" y1="1544.811" x2="2130.277" y2="1562.811" style="stroke:#181818;stroke-width:1;"/><line x1="2130.277" y1="1562.811" x2="557.672" y2="1562.811" style="stroke:#181818;stroke-width:1;"/><line x1="557.672" y1="1562.811" x2="557.672" y2="1576.811" style="stroke:#181818;stroke-width:1;"/><polygon points="553.672,1566.811,557.672,1576.811,561.672,1566.811,557.672,1570.811" fill="#181818" style="stroke:#181818;stroke-width:1;stroke-linejoin:miter;stroke-miterlimit:10;"/><line x1="1905.055" y1="693.686" x2="1917.055" y2="693.686" style="stroke:#181818;stroke-width:1;"/><line x1="1917.055" y1="693.686" x2="1917.055" y2="711.686" style="stroke:#181818;stroke-width:1;"/><line x1="1917.055" y1="711.686" x2="1208.523" y2="711.686" style="stroke:#181818;stroke-width:1;"/><line x1="1208.523" y1="711.686" x2="1208.523" y2="725.686" style="stroke:#181818;stroke-width:1;"/><polygon points="1204.523,715.686,1208.523,725.686,1212.523,715.686,1208.523,719.686" fill="#181818" style="stroke:#181818;stroke-width:1;stroke-linejoin:miter;stroke-miterlimit:10;"/><text x="328.465" y="85.719" fill="#000" font-size="20" textLength="45.586">User</text><text x="1027.629" y="85.719" fill="#000" font-size="20" textLength="90.156">Frontend</text><text x="1775.332" y="85.719" fill="#000" font-size="20" textLength="86.23">Backend</text><text x="2351.634" y="85.719" fill="#000" font-size="20" textLength="112.432">WebSocket</text><?plantuml-src dLHTQoH557tlNt711xEu0JFPZVbOLoOpFScmSHBC-844Girqfxj8TzKmNRqX6i7LXpo8i8iF8ekO8OWFgwuIKUX-s8SE-H_zJxnLrTCVcHvOdK1cgBhtrBtdddi45PuDpQ6WZwauXJObpfZui0WjDus_PV0ukG27fl5BSDmqUcKORyBY8jucNtRX-caQ_Ts7pcwl3_lTJqrv47y5hUqq_Xtwkx1zSz6JqKPmJDc8I5pBFYAX9pgSYNtwcGrBAwLB8Ml9hnhtIbV12VKzmkn-DUJjKeXdEpQpoiYgrDVu62MK0HaUEsCUCgl5FJw6DphgKox59HO_eSo18-85TZcPJ6dyt03yRDx6CfSxZKvRt_6nPO-pywMrTrRQ3NME0_0vipPhobXhtQk4b14wQytLndrrlI_8M6J7ZPNbnlAgEZPpgDAXP6jwkYJ_Z2yCu-p3m1wV6O74COprJ0WZb_ftOPn6az5TO4voSQgq4OHfzBE0eKjH7U46PdV628gJE3FMjp2JGdEl2oADBYa4DnEuVfR6tsanoMZPg0xUGQ1Ji0Xp8KWcGrV7g4U4V1O95suoeTFSzJwUNe8bjUcXGi_3ElnIDTiOz3L3a3J-1WAR2F39Q2FlTzgedyO_271v6lqp18PznK_2MhoYkzA2L7jwFur_mfO46P30nZO82wH6ECFo7xd95L7j7Sl2V7bTxVI03P68Z8VhPpT_fF7b4AcMPU8xz0WM-ffzISGqJDNR_AZPtMbkxfZltK4icy42FlSNS-weiQz_m3rFAhrI4ZnuW38pDqtpuKCTfXdsqlXxEfr66hyWUIq7Z3doruyKZbrPQbPR1Kb1bNXJo9LP25KQ3989ruyTC3LrfHaF2Q75k6QX0y57Xc7ZAi92AxdAEcobqMyZ71z-2PLzY7eMOG3lmlRkJblXcAkT--RQjDbAXiizwt1mYj4XYgDhlLPyo0JrC8Nn4tWBtSotUIZgChdlKp73VHwa6VlO7knp59B8ADiB1nuDS3dI-4ybcNCc1r_KKBibjUptP0A3_0LDRpX2fTeRDGFIivTQhhunXydDD7eff1AZNq8Oeea9D4oDXKfnA66tDaRLgBTG0NmYjSHqaQW2bCM0StHPPqu_5P-PZSxtKGK_AhPDQwkMjzkXCuAeZr0IoDwL-xcLRKtqWXKRh9j7DYv7Kk_d-OxcyjNRL-v5RjxpsxNkcRrsjxSrEu9IlhAG3EJGiWMXNZ0lGQrxjes2ifp7MNNMJ451jD4VC3aV-aPnTVrKMwahMNYEGL8Whz1lami6Rl8h-hvmfViBdapOl3SBbHIxBt_f_I-RNAcbtBkU5COuQtUPzAwAOKiNAesrFgDial8TCLVeizvLj-XpbrrtKJJmloSnptmFs7-eloopMPisgYDI4s8MFJBK_ty1?></g></svg>