<svg xmlns="http://www.w3.org/2000/svg" xmlns:xlink="http://www.w3.org/1999/xlink" version="1.1" data-diagram-type="SEQUENCE" style="width:2026px;height:1327px;background:#FFFFFF;" width="2026px" height="1327px" viewBox="0 0 2026 1327" zoomAndPan="magnify" preserveAspectRatio="none" contentStyleType="text/css"><?plantuml 1.2026.7beta11?><defs/><g font-family="sans-serif" lengthAdjust="spacing"><g class="title" data-source-line="1"><text x="857.166" y="27.995" fill="#000" font-size="14" textLength="309.839" font-weight="700">Sequence Diagram - Thanh toán VNPay</text></g><rect x="32" y="135.594" width="1569.869" height="362.727" fill="none" style="stroke:#78909C;stroke-width:1.5;"/><rect x="13" y="516.32" width="1993.17" height="776.258" fill="none" style="stroke:#78909C;stroke-width:1.5;"/><rect x="32" y="649.984" width="1949.17" height="628.594" fill="none" style="stroke:#78909C;stroke-width:1.5;"/><g><title>User</title><rect x="44.5" y="123.594" width="8" height="1192.984" fill="#000" fill-opacity="0"/><line x1="48" y1="123.594" x2="48" y2="1316.578" style="stroke:#607D8B;stroke-width:0.5;stroke-dasharray:5,5;"/></g><g><title>React Client</title><rect x="294.236" y="123.594" width="8" height="1192.984" fill="#000" fill-opacity="0"/><line x1="297.736" y1="123.594" x2="297.736" y2="1316.578" style="stroke:#607D8B;stroke-width:0.5;stroke-dasharray:5,5;"/></g><g><title>PaymentController</title><rect x="556.958" y="123.594" width="8" height="1192.984" fill="#000" fill-opacity="0"/><line x1="560.458" y1="123.594" x2="560.458" y2="1316.578" style="stroke:#607D8B;stroke-width:0.5;stroke-dasharray:5,5;"/></g><g><title></title><rect x="555.458" y="228.125" width="10" height="203.93" fill="#ECEFF1" style="stroke:#181818;stroke-width:1;"/></g><g><title></title><rect x="555.458" y="579.719" width="10" height="409.859" fill="#ECEFF1" style="stroke:#181818;stroke-width:1;"/></g><g><title>PaymentService</title><rect x="823.628" y="123.594" width="8" height="1192.984" fill="#000" fill-opacity="0"/><line x1="827.128" y1="123.594" x2="827.128" y2="1316.578" style="stroke:#607D8B;stroke-width:0.5;stroke-dasharray:5,5;"/></g><g><title></title><rect x="822.128" y="257.258" width="10" height="145.664" fill="#ECEFF1" style="stroke:#181818;stroke-width:1;"/></g><g><title></title><rect x="822.128" y="698.25" width="10" height="262.195" fill="#ECEFF1" style="stroke:#181818;stroke-width:1;"/></g><g><title></title><rect x="822.128" y="1066.648" width="10" height="145.664" fill="#ECEFF1" style="stroke:#181818;stroke-width:1;"/></g><g><title>VNPayGateway</title><rect x="1080.148" y="123.594" width="8" height="1192.984" fill="#000" fill-opacity="0"/><line x1="1083.648" y1="123.594" x2="1083.648" y2="1316.578" style="stroke:#607D8B;stroke-width:0.5;stroke-dasharray:5,5;"/></g><g><title></title><rect x="1078.648" y="286.391" width="10" height="29.133" fill="#ECEFF1" style="stroke:#181818;stroke-width:1;"/></g><g><title></title><rect x="1078.648" y="608.852" width="10" height="29.133" fill="#ECEFF1" style="stroke:#181818;stroke-width:1;"/></g><g><title>VNPay Sandbox</title><rect x="1209.133" y="123.594" width="8" height="1192.984" fill="#000" fill-opacity="0"/><line x1="1212.633" y1="123.594" x2="1212.633" y2="1316.578" style="stroke:#607D8B;stroke-width:0.5;stroke-dasharray:5,5;"/></g><g><title>BookingService</title><rect x="1338.635" y="123.594" width="8" height="1192.984" fill="#000" fill-opacity="0"/><line x1="1342.135" y1="123.594" x2="1342.135" y2="1316.578" style="stroke:#607D8B;stroke-width:0.5;stroke-dasharray:5,5;"/></g><g><title></title><rect x="1337.135" y="727.383" width="10" height="203.93" fill="#ECEFF1" style="stroke:#181818;stroke-width:1;"/></g><g><title></title><rect x="1337.135" y="1095.781" width="10" height="87.398" fill="#ECEFF1" style="stroke:#181818;stroke-width:1;"/></g><g><title>PaymentRepository</title><rect x="1577.369" y="123.594" width="8" height="1192.984" fill="#000" fill-opacity="0"/><line x1="1580.869" y1="123.594" x2="1580.869" y2="1316.578" style="stroke:#607D8B;stroke-width:0.5;stroke-dasharray:5,5;"/></g><g><title></title><rect x="1575.869" y="344.656" width="10" height="29.133" fill="#ECEFF1" style="stroke:#181818;stroke-width:1;"/></g><g><title></title><rect x="1575.869" y="756.516" width="10" height="29.133" fill="#ECEFF1" style="stroke:#181818;stroke-width:1;"/></g><g><title></title><rect x="1575.869" y="1124.914" width="10" height="29.133" fill="#ECEFF1" style="stroke:#181818;stroke-width:1;"/></g><g><title>TicketService</title><rect x="1708.91" y="123.594" width="8" height="1192.984" fill="#000" fill-opacity="0"/><line x1="1712.41" y1="123.594" x2="1712.41" y2="1316.578" style="stroke:#607D8B;stroke-width:0.5;stroke-dasharray:5,5;"/></g><g><title></title><rect x="1707.41" y="814.781" width="10" height="87.398" fill="#ECEFF1" style="stroke:#181818;stroke-width:1;"/></g><g><title>MailService</title><rect x="1956.67" y="123.594" width="8" height="1192.984" fill="#000" fill-opacity="0"/><line x1="1960.17" y1="123.594" x2="1960.17" y2="1316.578" style="stroke:#607D8B;stroke-width:0.5;stroke-dasharray:5,5;"/></g><g><title></title><rect x="1955.17" y="843.914" width="10" height="29.133" fill="#ECEFF1" style="stroke:#181818;stroke-width:1;"/></g><text x="29.045" y="120.292" fill="#000" font-size="14" textLength="31.91">User</text><ellipse cx="48" cy="55.797" rx="8" ry="8" fill="#ECEFF1" style="stroke:#455A64;stroke-width:0.5;"/><path d="M48,63.797 L48,90.797 M35,71.797 L61,71.797 M48,90.797 L35,105.797 M48,90.797 L61,105.797" style="stroke:#455A64;stroke-width:0.5;" fill="none"/><text x="252.193" y="120.292" fill="#000" font-size="14" textLength="85.087">React Client</text><path d="M277.236,79.297 L277.236,103.297 M277.236,91.297 L294.236,91.297" style="stroke:#181818;stroke-width:0.5;" fill="none"/><ellipse cx="306.236" cy="91.297" rx="12" ry="12" fill="#E2E2F0" style="stroke:#181818;stroke-width:0.5;"/><text x="491.912" y="120.292" fill="#000" font-size="14" textLength="131.093">PaymentController</text><ellipse cx="560.458" cy="91.297" rx="12" ry="12" fill="#E2E2F0" style="stroke:#181818;stroke-width:0.5;"/><polygon points="556.458,79.297,562.458,74.297,560.458,79.297,562.458,84.297,556.458,79.297" fill="#181818" style="stroke:#181818;stroke-width:1;stroke-linejoin:miter;stroke-miterlimit:10;"/><text x="767.297" y="120.292" fill="#000" font-size="14" textLength="113.661">PaymentService</text><ellipse cx="827.128" cy="91.297" rx="12" ry="12" fill="#E2E2F0" style="stroke:#181818;stroke-width:0.5;"/><polygon points="823.128,79.297,829.128,74.297,827.128,79.297,829.128,84.297,823.128,79.297" fill="#181818" style="stroke:#181818;stroke-width:1;stroke-linejoin:miter;stroke-miterlimit:10;"/><text x="1027.047" y="120.292" fill="#000" font-size="14" textLength="107.201">VNPayGateway</text><ellipse cx="1083.648" cy="91.297" rx="12" ry="12" fill="#E2E2F0" style="stroke:#181818;stroke-width:0.5;"/><polygon points="1079.648,79.297,1085.648,74.297,1083.648,79.297,1085.648,84.297,1079.648,79.297" fill="#181818" style="stroke:#181818;stroke-width:1;stroke-linejoin:miter;stroke-miterlimit:10;"/><rect x="1150.249" y="92.297" width="124.77" height="30.297" fill="#E3F2FD" style="stroke:#1976D2;stroke-width:0.5;" rx="2.5" ry="2.5"/><text x="1157.249" y="112.292" fill="#000" font-size="14" textLength="110.77">VNPay Sandbox</text><text x="1285.018" y="120.292" fill="#000" font-size="14" textLength="108.233">BookingService</text><ellipse cx="1342.135" cy="91.297" rx="12" ry="12" fill="#E2E2F0" style="stroke:#181818;stroke-width:0.5;"/><polygon points="1338.135,79.297,1344.135,74.297,1342.135,79.297,1344.135,84.297,1338.135,79.297" fill="#181818" style="stroke:#181818;stroke-width:1;stroke-linejoin:miter;stroke-miterlimit:10;"/><text x="1509.373" y="120.292" fill="#000" font-size="14" textLength="136.992">PaymentRepository</text><path d="M1562.869,71.297 C1562.869,61.297 1580.869,61.297 1580.869,61.297 C1580.869,61.297 1598.869,61.297 1598.869,71.297 L1598.869,97.297 C1598.869,107.297 1580.869,107.297 1580.869,107.297 C1580.869,107.297 1562.869,107.297 1562.869,97.297 L1562.869,71.297" style="stroke:#181818;stroke-width:0.5;" fill="#E2E2F0"/><path d="M1562.869,71.297 C1562.869,81.297 1580.869,81.297 1580.869,81.297 C1580.869,81.297 1598.869,81.297 1598.869,71.297" style="stroke:#181818;stroke-width:0.5;" fill="none"/><text x="1662.365" y="120.292" fill="#000" font-size="14" textLength="94.09">TicketService</text><ellipse cx="1712.41" cy="91.297" rx="12" ry="12" fill="#E2E2F0" style="stroke:#181818;stroke-width:0.5;"/><polygon points="1708.41,79.297,1714.41,74.297,1712.41,79.297,1714.41,84.297,1708.41,79.297" fill="#181818" style="stroke:#181818;stroke-width:1;stroke-linejoin:miter;stroke-miterlimit:10;"/><text x="1917.081" y="120.292" fill="#000" font-size="14" textLength="80.179">MailService</text><ellipse cx="1960.17" cy="91.297" rx="12" ry="12" fill="#E2E2F0" style="stroke:#181818;stroke-width:0.5;"/><polygon points="1956.17,79.297,1962.17,74.297,1960.17,79.297,1962.17,84.297,1956.17,79.297" fill="#181818" style="stroke:#181818;stroke-width:1;stroke-linejoin:miter;stroke-miterlimit:10;"/><path d="M32,135.594 L275.377,135.594 L275.377,142.727 L265.377,152.727 L32,152.727 L32,135.594" style="stroke:#78909C;stroke-width:1.5;" fill="#F5F5F5"/><rect x="32" y="135.594" width="1569.869" height="362.727" fill="none" style="stroke:#78909C;stroke-width:1.5;"/><text x="47" y="148.661" fill="#000" font-size="13" textLength="198.377" font-weight="700">Khởi tạo thanh toán VNPay</text><polygon points="285.736,179.859,295.736,183.859,285.736,187.859,289.736,183.859" fill="#37474F" style="stroke:#37474F;stroke-width:1;stroke-linejoin:miter;stroke-miterlimit:10;"/><line x1="48" y1="183.859" x2="291.736" y2="183.859" style="stroke:#37474F;stroke-width:1;"/><text x="55" y="178.793" fill="#000" font-size="13" font-weight="700">1</text><text x="68.045" y="178.793" fill="#000" font-size="13" textLength="155.061">Chọn thanh toán VNPay</text><polygon points="543.458,224.125,553.458,228.125,543.458,232.125,547.458,228.125" fill="#37474F" style="stroke:#37474F;stroke-width:1;stroke-linejoin:miter;stroke-miterlimit:10;"/><line x1="297.736" y1="228.125" x2="549.458" y2="228.125" style="stroke:#37474F;stroke-width:1;"/><text x="304.736" y="215.493" fill="#000" font-size="13" font-weight="700">2</text><text x="317.782" y="207.926" fill="#000" font-size="13" textLength="176.624">POST /payments/vnpay/init</text><text x="317.782" y="223.059" fill="#000" font-size="13" textLength="74.02">(bookingId)</text><polygon points="810.128,253.258,820.128,257.258,810.128,261.258,814.128,257.258" fill="#37474F" style="stroke:#37474F;stroke-width:1;stroke-linejoin:miter;stroke-miterlimit:10;"/><line x1="565.458" y1="257.258" x2="816.128" y2="257.258" style="stroke:#37474F;stroke-width:1;"/><text x="572.458" y="252.192" fill="#000" font-size="13" font-weight="700">3</text><text x="585.503" y="252.192" fill="#000" font-size="13" textLength="224.625">createPayment(bookingId, VNPAY)</text><polygon points="1066.648,282.391,1076.648,286.391,1066.648,290.391,1070.648,286.391" fill="#37474F" style="stroke:#37474F;stroke-width:1;stroke-linejoin:miter;stroke-miterlimit:10;"/><line x1="832.128" y1="286.391" x2="1072.648" y2="286.391" style="stroke:#37474F;stroke-width:1;"/><text x="839.128" y="281.325" fill="#000" font-size="13" font-weight="700">4</text><text x="852.173" y="281.325" fill="#000" font-size="13" textLength="214.475">buildSignedPaymentUrl(booking)</text><polygon points="843.128,311.523,833.128,315.523,843.128,319.523,839.128,315.523" fill="#37474F" style="stroke:#37474F;stroke-width:1;stroke-linejoin:miter;stroke-miterlimit:10;"/><line x1="837.128" y1="315.523" x2="1077.648" y2="315.523" style="stroke:#37474F;stroke-width:1;stroke-dasharray:2,2;"/><text x="849.128" y="310.458" fill="#000" font-size="13" font-weight="700">5</text><text x="862.173" y="310.458" fill="#000" font-size="13" textLength="119.095">signedPaymentUrl</text><polygon points="1563.869,340.656,1573.869,344.656,1563.869,348.656,1567.869,344.656" fill="#37474F" style="stroke:#37474F;stroke-width:1;stroke-linejoin:miter;stroke-miterlimit:10;"/><line x1="832.128" y1="344.656" x2="1569.869" y2="344.656" style="stroke:#37474F;stroke-width:1;"/><text x="839.128" y="339.59" fill="#000" font-size="13" font-weight="700">6</text><text x="852.173" y="339.59" fill="#000" font-size="13" textLength="162.037">save(payment PENDING)</text><polygon points="843.128,369.789,833.128,373.789,843.128,377.789,839.128,373.789" fill="#37474F" style="stroke:#37474F;stroke-width:1;stroke-linejoin:miter;stroke-miterlimit:10;"/><line x1="837.128" y1="373.789" x2="1574.869" y2="373.789" style="stroke:#37474F;stroke-width:1;stroke-dasharray:2,2;"/><text x="849.128" y="368.723" fill="#000" font-size="13" font-weight="700">7</text><text x="862.173" y="368.723" fill="#000" font-size="13" textLength="96.18">savedPayment</text><polygon points="576.458,398.922,566.458,402.922,576.458,406.922,572.458,402.922" fill="#37474F" style="stroke:#37474F;stroke-width:1;stroke-linejoin:miter;stroke-miterlimit:10;"/><line x1="570.458" y1="402.922" x2="821.128" y2="402.922" style="stroke:#37474F;stroke-width:1;stroke-dasharray:2,2;"/><text x="582.458" y="397.856" fill="#000" font-size="13" font-weight="700">8</text><text x="595.503" y="397.856" fill="#000" font-size="13" textLength="76.381">paymentUrl</text><polygon points="308.736,428.055,298.736,432.055,308.736,436.055,304.736,432.055" fill="#37474F" style="stroke:#37474F;stroke-width:1;stroke-linejoin:miter;stroke-miterlimit:10;"/><line x1="302.736" y1="432.055" x2="554.458" y2="432.055" style="stroke:#37474F;stroke-width:1;stroke-dasharray:2,2;"/><text x="314.736" y="426.989" fill="#000" font-size="13" font-weight="700">9</text><text x="327.782" y="426.989" fill="#000" font-size="13" textLength="76.381">paymentUrl</text><polygon points="1200.633,457.188,1210.633,461.188,1200.633,465.188,1204.633,461.188" fill="#37474F" style="stroke:#37474F;stroke-width:1;stroke-linejoin:miter;stroke-miterlimit:10;"/><line x1="297.736" y1="461.188" x2="1206.633" y2="461.188" style="stroke:#37474F;stroke-width:1;"/><text x="304.736" y="456.122" fill="#000" font-size="13" textLength="18.091" font-weight="700">10</text><text x="326.827" y="456.122" fill="#000" font-size="13" textLength="197.38">Redirect User đến paymentUrl</text><polygon points="1200.633,486.32,1210.633,490.32,1200.633,494.32,1204.633,490.32" fill="#37474F" style="stroke:#37474F;stroke-width:1;stroke-linejoin:miter;stroke-miterlimit:10;"/><line x1="48" y1="490.32" x2="1206.633" y2="490.32" style="stroke:#37474F;stroke-width:1;"/><text x="55" y="485.254" fill="#000" font-size="13" textLength="18.091" font-weight="700">11</text><text x="77.091" y="485.254" fill="#000" font-size="13" textLength="139.09">Thực hiện thanh toán</text><path d="M13,516.32 L239.771,516.32 L239.771,523.453 L229.771,533.453 L13,533.453 L13,516.32" style="stroke:#78909C;stroke-width:1.5;" fill="#F5F5F5"/><rect x="13" y="516.32" width="1993.17" height="776.258" fill="none" style="stroke:#78909C;stroke-width:1.5;"/><text x="28" y="529.387" fill="#000" font-size="13" textLength="181.771" font-weight="700">Xử lý kết quả thanh toán</text><polygon points="576.458,575.719,566.458,579.719,576.458,583.719,572.458,579.719" fill="#37474F" style="stroke:#37474F;stroke-width:1;stroke-linejoin:miter;stroke-miterlimit:10;"/><line x1="570.458" y1="579.719" x2="1211.633" y2="579.719" style="stroke:#37474F;stroke-width:1;"/><text x="582.458" y="567.086" fill="#000" font-size="13" textLength="18.091" font-weight="700">12</text><text x="604.549" y="559.52" fill="#000" font-size="13" textLength="109.827">Return / callback</text><text x="604.549" y="574.653" fill="#000" font-size="13" textLength="127.537">kèm VNPay params</text><polygon points="1066.648,604.852,1076.648,608.852,1066.648,612.852,1070.648,608.852" fill="#37474F" style="stroke:#37474F;stroke-width:1;stroke-linejoin:miter;stroke-miterlimit:10;"/><line x1="565.458" y1="608.852" x2="1072.648" y2="608.852" style="stroke:#37474F;stroke-width:1;"/><text x="572.458" y="603.786" fill="#000" font-size="13" textLength="18.091" font-weight="700">13</text><text x="594.549" y="603.786" fill="#000" font-size="13" textLength="163.693">verifyChecksum(params)</text><polygon points="576.458,633.984,566.458,637.984,576.458,641.984,572.458,637.984" fill="#37474F" style="stroke:#37474F;stroke-width:1;stroke-linejoin:miter;stroke-miterlimit:10;"/><line x1="570.458" y1="637.984" x2="1077.648" y2="637.984" style="stroke:#37474F;stroke-width:1;stroke-dasharray:2,2;"/><text x="582.458" y="632.918" fill="#000" font-size="13" textLength="18.091" font-weight="700">14</text><text x="604.549" y="632.918" fill="#000" font-size="13" textLength="113.604">verificationResult</text><path d="M32,649.984 L96.443,649.984 L96.443,657.117 L86.443,667.117 L32,667.117 L32,649.984" style="stroke:#78909C;stroke-width:1.5;" fill="#F5F5F5"/><rect x="32" y="649.984" width="1949.17" height="628.594" fill="none" style="stroke:#78909C;stroke-width:1.5;"/><text x="47" y="663.051" fill="#000" font-size="13" textLength="19.443" font-weight="700">alt</text><text x="111.443" y="662.195" fill="#000" font-size="11" textLength="254.139" font-weight="700">[Checksum hợp lệ và giao dịch SUCCESS]</text><polygon points="810.128,694.25,820.128,698.25,810.128,702.25,814.128,698.25" fill="#37474F" style="stroke:#37474F;stroke-width:1;stroke-linejoin:miter;stroke-miterlimit:10;"/><line x1="565.458" y1="698.25" x2="816.128" y2="698.25" style="stroke:#37474F;stroke-width:1;"/><text x="572.458" y="693.184" fill="#000" font-size="13" textLength="18.091" font-weight="700">15</text><text x="594.549" y="693.184" fill="#000" font-size="13" textLength="155.746">handleSuccess(params)</text><polygon points="1325.135,723.383,1335.135,727.383,1325.135,731.383,1329.135,727.383" fill="#37474F" style="stroke:#37474F;stroke-width:1;stroke-linejoin:miter;stroke-miterlimit:10;"/><line x1="832.128" y1="727.383" x2="1331.135" y2="727.383" style="stroke:#37474F;stroke-width:1;"/><text x="839.128" y="722.317" fill="#000" font-size="13" textLength="18.091" font-weight="700">16</text><text x="861.219" y="722.317" fill="#000" font-size="13" textLength="203.684">confirmBookingPaid(bookingId)</text><polygon points="1563.869,752.516,1573.869,756.516,1563.869,760.516,1567.869,756.516" fill="#37474F" style="stroke:#37474F;stroke-width:1;stroke-linejoin:miter;stroke-miterlimit:10;"/><line x1="1347.135" y1="756.516" x2="1569.869" y2="756.516" style="stroke:#37474F;stroke-width:1;"/><text x="1354.135" y="751.45" fill="#000" font-size="13" textLength="18.091" font-weight="700">17</text><text x="1376.226" y="751.45" fill="#000" font-size="13" textLength="187.643">update payment = SUCCESS</text><polygon points="1358.135,781.648,1348.135,785.648,1358.135,789.648,1354.135,785.648" fill="#37474F" style="stroke:#37474F;stroke-width:1;stroke-linejoin:miter;stroke-miterlimit:10;"/><line x1="1352.135" y1="785.648" x2="1574.869" y2="785.648" style="stroke:#37474F;stroke-width:1;stroke-dasharray:2,2;"/><text x="1364.135" y="780.583" fill="#000" font-size="13" textLength="18.091" font-weight="700">18</text><text x="1386.226" y="780.583" fill="#000" font-size="13" textLength="111.554">updatedPayment</text><polygon points="1695.41,810.781,1705.41,814.781,1695.41,818.781,1699.41,814.781" fill="#37474F" style="stroke:#37474F;stroke-width:1;stroke-linejoin:miter;stroke-miterlimit:10;"/><line x1="1347.135" y1="814.781" x2="1701.41" y2="814.781" style="stroke:#37474F;stroke-width:1;"/><text x="1354.135" y="809.715" fill="#000" font-size="13" textLength="18.091" font-weight="700">19</text><text x="1376.226" y="809.715" fill="#000" font-size="13" textLength="179.01">generateTickets(bookingId)</text><polygon points="1943.17,839.914,1953.17,843.914,1943.17,847.914,1947.17,843.914" fill="#37474F" style="stroke:#37474F;stroke-width:1;stroke-linejoin:miter;stroke-miterlimit:10;"/><line x1="1717.41" y1="843.914" x2="1949.17" y2="843.914" style="stroke:#37474F;stroke-width:1;"/><text x="1724.41" y="838.848" fill="#000" font-size="13" textLength="18.091" font-weight="700">20</text><text x="1746.5" y="838.848" fill="#000" font-size="13" textLength="196.669">sendTicketEmail(user, tickets)</text><polygon points="1728.41,869.047,1718.41,873.047,1728.41,877.047,1724.41,873.047" fill="#37474F" style="stroke:#37474F;stroke-width:1;stroke-linejoin:miter;stroke-miterlimit:10;"/><line x1="1722.41" y1="873.047" x2="1954.17" y2="873.047" style="stroke:#37474F;stroke-width:1;stroke-dasharray:2,2;"/><text x="1734.41" y="867.981" fill="#000" font-size="13" textLength="18.091" font-weight="700">21</text><text x="1756.5" y="867.981" fill="#000" font-size="13" textLength="116.378">Email đã được gửi</text><polygon points="1358.135,898.18,1348.135,902.18,1358.135,906.18,1354.135,902.18" fill="#37474F" style="stroke:#37474F;stroke-width:1;stroke-linejoin:miter;stroke-miterlimit:10;"/><line x1="1352.135" y1="902.18" x2="1706.41" y2="902.18" style="stroke:#37474F;stroke-width:1;stroke-dasharray:2,2;"/><text x="1364.135" y="897.114" fill="#000" font-size="13" textLength="18.091" font-weight="700">22</text><text x="1386.226" y="897.114" fill="#000" font-size="13" textLength="113.242">generatedTickets</text><polygon points="843.128,927.313,833.128,931.313,843.128,935.313,839.128,931.313" fill="#37474F" style="stroke:#37474F;stroke-width:1;stroke-linejoin:miter;stroke-miterlimit:10;"/><line x1="837.128" y1="931.313" x2="1336.135" y2="931.313" style="stroke:#37474F;stroke-width:1;stroke-dasharray:2,2;"/><text x="849.128" y="926.247" fill="#000" font-size="13" textLength="18.091" font-weight="700">23</text><text x="871.219" y="926.247" fill="#000" font-size="13" textLength="136.563">Booking đã xác nhận</text><polygon points="576.458,956.445,566.458,960.445,576.458,964.445,572.458,960.445" fill="#37474F" style="stroke:#37474F;stroke-width:1;stroke-linejoin:miter;stroke-miterlimit:10;"/><line x1="570.458" y1="960.445" x2="821.128" y2="960.445" style="stroke:#37474F;stroke-width:1;stroke-dasharray:2,2;"/><text x="582.458" y="955.379" fill="#000" font-size="13" textLength="18.091" font-weight="700">24</text><text x="604.549" y="955.379" fill="#000" font-size="13" textLength="112.48">Payment success</text><polygon points="308.736,985.578,298.736,989.578,308.736,993.578,304.736,989.578" fill="#37474F" style="stroke:#37474F;stroke-width:1;stroke-linejoin:miter;stroke-miterlimit:10;"/><line x1="302.736" y1="989.578" x2="554.458" y2="989.578" style="stroke:#37474F;stroke-width:1;stroke-dasharray:2,2;"/><text x="314.736" y="984.512" fill="#000" font-size="13" textLength="18.091" font-weight="700">25</text><text x="336.827" y="984.512" fill="#000" font-size="13" textLength="211.631">Redirect trang kết quả SUCCESS</text><polygon points="59,1014.711,49,1018.711,59,1022.711,55,1018.711" fill="#37474F" style="stroke:#37474F;stroke-width:1;stroke-linejoin:miter;stroke-miterlimit:10;"/><line x1="53" y1="1018.711" x2="296.736" y2="1018.711" style="stroke:#37474F;stroke-width:1;stroke-dasharray:2,2;"/><text x="65" y="1013.645" fill="#000" font-size="13" textLength="18.091" font-weight="700">26</text><text x="87.091" y="1013.645" fill="#000" font-size="13" textLength="203.646">Hiển thị thanh toán thành công</text><line x1="32" y1="1027.711" x2="1981.17" y2="1027.711" style="stroke:#78909C;stroke-width:1;stroke-dasharray:2,2;"/><text x="37" y="1039.921" fill="#000" font-size="11" textLength="298.133" font-weight="700">[Giao dịch FAILED hoặc checksum không hợp lệ]</text><polygon points="810.128,1062.648,820.128,1066.648,810.128,1070.648,814.128,1066.648" fill="#37474F" style="stroke:#37474F;stroke-width:1;stroke-linejoin:miter;stroke-miterlimit:10;"/><line x1="560.458" y1="1066.648" x2="816.128" y2="1066.648" style="stroke:#37474F;stroke-width:1;"/><text x="567.458" y="1061.583" fill="#000" font-size="13" textLength="18.091" font-weight="700">27</text><text x="589.549" y="1061.583" fill="#000" font-size="13" textLength="142.333">handleFailed(params)</text><polygon points="1325.135,1091.781,1335.135,1095.781,1325.135,1099.781,1329.135,1095.781" fill="#37474F" style="stroke:#37474F;stroke-width:1;stroke-linejoin:miter;stroke-miterlimit:10;"/><line x1="832.128" y1="1095.781" x2="1331.135" y2="1095.781" style="stroke:#37474F;stroke-width:1;"/><text x="839.128" y="1090.715" fill="#000" font-size="13" textLength="18.091" font-weight="700">28</text><text x="861.219" y="1090.715" fill="#000" font-size="13" textLength="254.154">releaseSeatsAndMarkFailed(bookingId)</text><polygon points="1563.869,1120.914,1573.869,1124.914,1563.869,1128.914,1567.869,1124.914" fill="#37474F" style="stroke:#37474F;stroke-width:1;stroke-linejoin:miter;stroke-miterlimit:10;"/><line x1="1347.135" y1="1124.914" x2="1569.869" y2="1124.914" style="stroke:#37474F;stroke-width:1;"/><text x="1354.135" y="1119.848" fill="#000" font-size="13" textLength="18.091" font-weight="700">29</text><text x="1376.226" y="1119.848" fill="#000" font-size="13" textLength="172.675">update payment = FAILED</text><polygon points="1358.135,1150.047,1348.135,1154.047,1358.135,1158.047,1354.135,1154.047" fill="#37474F" style="stroke:#37474F;stroke-width:1;stroke-linejoin:miter;stroke-miterlimit:10;"/><line x1="1352.135" y1="1154.047" x2="1574.869" y2="1154.047" style="stroke:#37474F;stroke-width:1;stroke-dasharray:2,2;"/><text x="1364.135" y="1148.981" fill="#000" font-size="13" textLength="18.091" font-weight="700">30</text><text x="1386.226" y="1148.981" fill="#000" font-size="13" textLength="111.554">updatedPayment</text><polygon points="843.128,1179.18,833.128,1183.18,843.128,1187.18,839.128,1183.18" fill="#37474F" style="stroke:#37474F;stroke-width:1;stroke-linejoin:miter;stroke-miterlimit:10;"/><line x1="837.128" y1="1183.18" x2="1336.135" y2="1183.18" style="stroke:#37474F;stroke-width:1;stroke-dasharray:2,2;"/><text x="849.128" y="1178.114" fill="#000" font-size="13" textLength="18.091" font-weight="700">31</text><text x="871.219" y="1178.114" fill="#000" font-size="13" textLength="208.908">Đã trả ghế và đánh dấu thất bại</text><polygon points="571.458,1208.313,561.458,1212.313,571.458,1216.313,567.458,1212.313" fill="#37474F" style="stroke:#37474F;stroke-width:1;stroke-linejoin:miter;stroke-miterlimit:10;"/><line x1="565.458" y1="1212.313" x2="821.128" y2="1212.313" style="stroke:#37474F;stroke-width:1;stroke-dasharray:2,2;"/><text x="577.458" y="1207.247" fill="#000" font-size="13" textLength="18.091" font-weight="700">32</text><text x="599.549" y="1207.247" fill="#000" font-size="13" textLength="97.646">Payment failed</text><polygon points="308.736,1237.445,298.736,1241.445,308.736,1245.445,304.736,1241.445" fill="#37474F" style="stroke:#37474F;stroke-width:1;stroke-linejoin:miter;stroke-miterlimit:10;"/><line x1="302.736" y1="1241.445" x2="559.458" y2="1241.445" style="stroke:#37474F;stroke-width:1;stroke-dasharray:2,2;"/><text x="314.736" y="1236.379" fill="#000" font-size="13" textLength="18.091" font-weight="700">33</text><text x="336.827" y="1236.379" fill="#000" font-size="13" textLength="196.663">Redirect trang kết quả FAILED</text><polygon points="59,1266.578,49,1270.578,59,1274.578,55,1270.578" fill="#37474F" style="stroke:#37474F;stroke-width:1;stroke-linejoin:miter;stroke-miterlimit:10;"/><line x1="53" y1="1270.578" x2="296.736" y2="1270.578" style="stroke:#37474F;stroke-width:1;stroke-dasharray:2,2;"/><text x="65" y="1265.512" fill="#000" font-size="13" textLength="18.091" font-weight="700">34</text><text x="87.091" y="1265.512" fill="#000" font-size="13" textLength="180.502">Hiển thị thanh toán thất bại</text><?plantuml-src pLRTQYCt5BwVfpYaDobioFuaySRGGkAVD3IRDNPIMjWRUKRs28ybhqRZh2czwiLUb4Bx1DqG5dgpq4AXu53smalVms_Iez6C8ysCa-v5IXrYhAEZJqVdVD-H55CHXHvzcL3kKsWoCfHa35jm5X8UWXABImvVdNR8pFD8eWHFndqglP0550P2gBvuvNdnYF49qUlwn1yDfKXuq12HaF19E_rO7d580d71-10698gflJZEe_ZM0_mSI2akCfWdjPtQJZirdx01FM6S7WePK9dDxpsiDPyUklF5K5gDLhlzAFNf4AcOpoQ4AmVcqNvjh_cuv592Uj9-t6wQ87qbf8EnixjxiBTZJTuInn7Q9yxgsjFzX_iDQxAKq5tzvts7vT3eS1vZEVhQWSWPR7Gfcg4HCShL1f0u--dvWYif8jZ0IexHq33ZY4hZjHgMF7jKJfbFKpVNTEEQ4kI8A7f1PgbZzjkRt6Gnyu8UuG6o9dKpn5h170g1P1ZQExecBo2Az4bCLz5rwKJ431CnimFKrXlOC-QFg7CEntBZ-8omo7Qpnfwdgp21ByFbzIyCr79-AK2LDQ8Bfqi2MvzdgQz30zVyoDTv6w_KVrM4EdIUzyvWUsAE4szFKIApRSQPUi4t-oOdny6d1W4hpgQOSBkAAV9ggD7TsjN1bnJNPDORp0SwjeDlYj25oXk5s2QzHLRrElGJ5WKzDkGqoBpEPPJlKOJEkP9otlo6hOg0um9UkY2W9PmrmLdKG2mofPjPTg7JEcqUdnwjENBA9GjIZwlZGymyl69iDbPbV8NoJzQUib28Kg4jtgq7iOXIu61Ap3fqQS0anKwISld3pylvUrx4oscUBJb3bl_kGyYMrwyTidiUvK6kdw-Nr-yWMlm58uHKy39PpgzSPmrjEaKX9rsg4ibX6tmIHVgYUS57Yr_7cNDwXSGV8uWLMwTKii6i4L9_52VZJOFqRrbgHvW2CPye9dYNnacaRkKeYR1JPxi2Pkzg0X4c3wQBDp1aH42mlFx13w5ttcYqUZspw6vXOpA3YFOItwTnx9xcBabNAyVjmTWv11ymESxC7SA2KajoDYhqy7pUDPSacam2lJWNwMVbDAnLQfLQYuSmy8vUxz9iTT3ENLA78ULKud9ZZc_FZ7iFvTEELMzXtKFOPb1DngCrHljcWZ9y0CfiLxM9VOlbavOjpKxX42aoodvnXLz__uRKz668ocLLUN9koJLdg2X0dgZiC74Lj9kVjKMe447cOixmQd7f0m-NytUyQfS2FzSgeNX5PyoCZT9keL09UKt3NdLT9Gd6RhV8dFmLcnIRkTtG4LotwJfyWMtvUzsMiQKuBn4LBjxWm5_ymOTcFSLdEHnP_QTzS7pIQa8eblC_VV3pZZKAzHghSNrSWseZRMXm7_r9qeZY6x67xvluW0VFY1nbc_qNRSfaw__LfIgAyE4d58QIcbj3LCRxzDP1jLmY6OBb_6sYkJ9_gw2FJrrs3x8Pf2MvNzLajRW7qLYfCQB19mx-_mC0?></g></svg>