<svg xmlns="http://www.w3.org/2000/svg" xmlns:xlink="http://www.w3.org/1999/xlink" version="1.1" data-diagram-type="SEQUENCE" style="width:1611px;height:1343px;background:#FFFFFF;" width="1611px" height="1343px" viewBox="0 0 1611 1343" zoomAndPan="magnify" preserveAspectRatio="none" contentStyleType="text/css"><?plantuml 1.2026.7beta11?><defs/><g font-family="sans-serif" lengthAdjust="spacing"><g class="title" data-source-line="1"><text x="663.902" y="27.995" fill="#000" font-size="14" textLength="281.606" font-weight="700">Sequence Diagram - Hủy suất chiếu</text></g><rect x="13" y="238.125" width="1041.346" height="339.133" fill="none" style="stroke:#78909C;stroke-width:1.5;"/><rect x="32" y="269.258" width="997.346" height="294" fill="none" style="stroke:#78909C;stroke-width:1.5;"/><rect x="51" y="434.727" width="719.332" height="114.531" fill="none" style="stroke:#78909C;stroke-width:1.5;"/><rect x="51" y="637.391" width="719.332" height="114.531" fill="none" style="stroke:#78909C;stroke-width:1.5;"/><rect x="719.332" y="769.922" width="757.791" height="362.594" fill="none" style="stroke:#78909C;stroke-width:1.5;"/><rect x="738.332" y="1017.984" width="713.791" height="100.531" fill="none" style="stroke:#78909C;stroke-width:1.5;"/><g><title>Admin . Staff</title><rect x="63.5" y="123.594" width="8" height="1208.852" fill="#000" fill-opacity="0"/><line x1="67" y1="123.594" x2="67" y2="1332.445" style="stroke:#607D8B;stroke-width:0.5;stroke-dasharray:5,5;"/></g><g><title>React Admin</title><rect x="279.822" y="123.594" width="8" height="1208.852" fill="#000" fill-opacity="0"/><line x1="283.322" y1="123.594" x2="283.322" y2="1332.445" style="stroke:#607D8B;stroke-width:0.5;stroke-dasharray:5,5;"/></g><g><title>ShowtimeController</title><rect x="510.509" y="123.594" width="8" height="1208.852" fill="#000" fill-opacity="0"/><line x1="514.009" y1="123.594" x2="514.009" y2="1332.445" style="stroke:#607D8B;stroke-width:0.5;stroke-dasharray:5,5;"/></g><g><title>ShowtimeService</title><rect x="750.832" y="123.594" width="8" height="1208.852" fill="#000" fill-opacity="0"/><line x1="754.332" y1="123.594" x2="754.332" y2="1332.445" style="stroke:#607D8B;stroke-width:0.5;stroke-dasharray:5,5;"/></g><g><title>StaffCinemaService</title><rect x="1009.846" y="123.594" width="8" height="1208.852" fill="#000" fill-opacity="0"/><line x1="1013.346" y1="123.594" x2="1013.346" y2="1332.445" style="stroke:#607D8B;stroke-width:0.5;stroke-dasharray:5,5;"/></g><g><title>BookingRepository</title><rect x="1160.589" y="123.594" width="8" height="1208.852" fill="#000" fill-opacity="0"/><line x1="1164.089" y1="123.594" x2="1164.089" y2="1332.445" style="stroke:#607D8B;stroke-width:0.5;stroke-dasharray:5,5;"/></g><g><title>TicketRepository</title><rect x="1301.082" y="123.594" width="8" height="1208.852" fill="#000" fill-opacity="0"/><line x1="1304.582" y1="123.594" x2="1304.582" y2="1332.445" style="stroke:#607D8B;stroke-width:0.5;stroke-dasharray:5,5;"/></g><g><title>PaymentService</title><rect x="1432.623" y="123.594" width="8" height="1208.852" fill="#000" fill-opacity="0"/><line x1="1436.123" y1="123.594" x2="1436.123" y2="1332.445" style="stroke:#607D8B;stroke-width:0.5;stroke-dasharray:5,5;"/></g><g><title>AuditService</title><rect x="1549.682" y="123.594" width="8" height="1208.852" fill="#000" fill-opacity="0"/><line x1="1553.182" y1="123.594" x2="1553.182" y2="1332.445" style="stroke:#607D8B;stroke-width:0.5;stroke-dasharray:5,5;"/></g><text x="18.353" y="120.292" fill="#000" font-size="14" textLength="91.294">Admin / Staff</text><ellipse cx="67" cy="55.797" rx="8" ry="8" fill="#ECEFF1" style="stroke:#455A64;stroke-width:0.5;"/><path d="M67,63.797 L67,90.797 M54,71.797 L80,71.797 M67,90.797 L54,105.797 M67,90.797 L80,105.797" style="stroke:#455A64;stroke-width:0.5;" fill="none"/><text x="235.612" y="120.292" fill="#000" font-size="14" textLength="89.421">React Admin</text><path d="M262.822,79.297 L262.822,103.297 M262.822,91.297 L279.822,91.297" style="stroke:#181818;stroke-width:0.5;" fill="none"/><ellipse cx="291.822" cy="91.297" rx="12" ry="12" fill="#E2E2F0" style="stroke:#181818;stroke-width:0.5;"/><text x="441.72" y="120.292" fill="#000" font-size="14" textLength="138.578">ShowtimeController</text><ellipse cx="514.009" cy="91.297" rx="12" ry="12" fill="#E2E2F0" style="stroke:#181818;stroke-width:0.5;"/><polygon points="510.009,79.297,516.009,74.297,514.009,79.297,516.009,84.297,510.009,79.297" fill="#181818" style="stroke:#181818;stroke-width:1;stroke-linejoin:miter;stroke-miterlimit:10;"/><text x="690.759" y="120.292" fill="#000" font-size="14" textLength="121.146">ShowtimeService</text><ellipse cx="754.332" cy="91.297" rx="12" ry="12" fill="#E2E2F0" style="stroke:#181818;stroke-width:0.5;"/><polygon points="750.332,79.297,756.332,74.297,754.332,79.297,756.332,84.297,750.332,79.297" fill="#181818" style="stroke:#181818;stroke-width:1;stroke-linejoin:miter;stroke-miterlimit:10;"/><text x="941.385" y="120.292" fill="#000" font-size="14" textLength="137.922">StaffCinemaService</text><ellipse cx="1013.346" cy="91.297" rx="12" ry="12" fill="#E2E2F0" style="stroke:#181818;stroke-width:0.5;"/><polygon points="1009.346,79.297,1015.346,74.297,1013.346,79.297,1015.346,84.297,1009.346,79.297" fill="#181818" style="stroke:#181818;stroke-width:1;stroke-linejoin:miter;stroke-miterlimit:10;"/><text x="1095.307" y="120.292" fill="#000" font-size="14" textLength="131.564">BookingRepository</text><path d="M1146.089,71.297 C1146.089,61.297 1164.089,61.297 1164.089,61.297 C1164.089,61.297 1182.089,61.297 1182.089,71.297 L1182.089,97.297 C1182.089,107.297 1164.089,107.297 1164.089,107.297 C1164.089,107.297 1146.089,107.297 1146.089,97.297 L1146.089,71.297" style="stroke:#181818;stroke-width:0.5;" fill="#E2E2F0"/><path d="M1146.089,71.297 C1146.089,81.297 1164.089,81.297 1164.089,81.297 C1164.089,81.297 1182.089,81.297 1182.089,71.297" style="stroke:#181818;stroke-width:0.5;" fill="none"/><text x="1242.872" y="120.292" fill="#000" font-size="14" textLength="117.421">TicketRepository</text><path d="M1286.582,71.297 C1286.582,61.297 1304.582,61.297 1304.582,61.297 C1304.582,61.297 1322.582,61.297 1322.582,71.297 L1322.582,97.297 C1322.582,107.297 1304.582,107.297 1304.582,107.297 C1304.582,107.297 1286.582,107.297 1286.582,97.297 L1286.582,71.297" style="stroke:#181818;stroke-width:0.5;" fill="#E2E2F0"/><path d="M1286.582,71.297 C1286.582,81.297 1304.582,81.297 1304.582,81.297 C1304.582,81.297 1322.582,81.297 1322.582,71.297" style="stroke:#181818;stroke-width:0.5;" fill="none"/><text x="1376.292" y="120.292" fill="#000" font-size="14" textLength="113.661">PaymentService</text><ellipse cx="1436.123" cy="91.297" rx="12" ry="12" fill="#E2E2F0" style="stroke:#181818;stroke-width:0.5;"/><polygon points="1432.123,79.297,1438.123,74.297,1436.123,79.297,1438.123,84.297,1432.123,79.297" fill="#181818" style="stroke:#181818;stroke-width:1;stroke-linejoin:miter;stroke-miterlimit:10;"/><text x="1505.954" y="120.292" fill="#000" font-size="14" textLength="88.457">AuditService</text><ellipse cx="1553.182" cy="91.297" rx="12" ry="12" fill="#E2E2F0" style="stroke:#181818;stroke-width:0.5;"/><polygon points="1549.182,79.297,1555.182,74.297,1553.182,79.297,1555.182,84.297,1549.182,79.297" fill="#181818" style="stroke:#181818;stroke-width:1;stroke-linejoin:miter;stroke-miterlimit:10;"/><polygon points="271.322,148.727,281.322,152.727,271.322,156.727,275.322,152.727" fill="#37474F" style="stroke:#37474F;stroke-width:1;stroke-linejoin:miter;stroke-miterlimit:10;"/><line x1="67" y1="152.727" x2="277.322" y2="152.727" style="stroke:#37474F;stroke-width:1;"/><text x="74" y="147.661" fill="#000" font-size="13" font-weight="700">1</text><text x="87.045" y="147.661" fill="#000" font-size="13" textLength="129.429">Bấm hủy suất chiếu</text><polygon points="502.009,177.859,512.009,181.859,502.009,185.859,506.009,181.859" fill="#37474F" style="stroke:#37474F;stroke-width:1;stroke-linejoin:miter;stroke-miterlimit:10;"/><line x1="283.322" y1="181.859" x2="508.009" y2="181.859" style="stroke:#37474F;stroke-width:1;"/><text x="290.322" y="176.793" fill="#000" font-size="13" font-weight="700">2</text><text x="303.368" y="176.793" fill="#000" font-size="13" textLength="191.794">POST /showtimes/{id}/cancel</text><polygon points="742.332,222.125,752.332,226.125,742.332,230.125,746.332,226.125" fill="#37474F" style="stroke:#37474F;stroke-width:1;stroke-linejoin:miter;stroke-miterlimit:10;"/><line x1="514.009" y1="226.125" x2="748.332" y2="226.125" style="stroke:#37474F;stroke-width:1;"/><text x="521.009" y="213.493" fill="#000" font-size="13" font-weight="700">3</text><text x="534.055" y="205.926" fill="#000" font-size="13" textLength="174.218">cancelShowtimeWithPolicy</text><text x="534.055" y="221.059" fill="#000" font-size="13" textLength="170.504">(showtimeId, currentUser)</text><path d="M13,238.125 L313.652,238.125 L313.652,245.258 L303.652,255.258 L13,255.258 L13,238.125" style="stroke:#78909C;stroke-width:1.5;" fill="#F5F5F5"/><rect x="13" y="238.125" width="1041.346" height="339.133" fill="none" style="stroke:#78909C;stroke-width:1.5;"/><text x="28" y="251.192" fill="#000" font-size="13" textLength="255.652" font-weight="700">Kiểm tra quyền và phạm vi quản lý</text><path d="M32,269.258 L96.443,269.258 L96.443,276.391 L86.443,286.391 L32,286.391 L32,269.258" style="stroke:#78909C;stroke-width:1.5;" fill="#F5F5F5"/><rect x="32" y="269.258" width="997.346" height="294" fill="none" style="stroke:#78909C;stroke-width:1.5;"/><text x="47" y="282.325" fill="#000" font-size="13" textLength="19.443" font-weight="700">alt</text><text x="111.443" y="281.468" fill="#000" font-size="11" textLength="169.028" font-weight="700">[Người thực hiện là ADMIN]</text><line x1="754.332" y1="317.523" x2="796.332" y2="317.523" style="stroke:#37474F;stroke-width:1;"/><line x1="796.332" y1="317.523" x2="796.332" y2="330.523" style="stroke:#37474F;stroke-width:1;"/><line x1="755.332" y1="330.523" x2="796.332" y2="330.523" style="stroke:#37474F;stroke-width:1;"/><polygon points="765.332,326.523,755.332,330.523,765.332,334.523,761.332,330.523" fill="#37474F" style="stroke:#37474F;stroke-width:1;stroke-linejoin:miter;stroke-miterlimit:10;"/><text x="761.332" y="312.458" fill="#000" font-size="13" font-weight="700">4</text><text x="774.377" y="312.458" fill="#000" font-size="13" textLength="216.931">Cho phép hủy trên toàn hệ thống</text><line x1="32" y1="339.523" x2="1029.346" y2="339.523" style="stroke:#78909C;stroke-width:1;stroke-dasharray:2,2;"/><text x="37" y="351.734" fill="#000" font-size="11" textLength="166.106" font-weight="700">[Người thực hiện là STAFF]</text><polygon points="1001.346,389.594,1011.346,393.594,1001.346,397.594,1005.346,393.594" fill="#37474F" style="stroke:#37474F;stroke-width:1;stroke-linejoin:miter;stroke-miterlimit:10;"/><line x1="754.332" y1="393.594" x2="1007.346" y2="393.594" style="stroke:#37474F;stroke-width:1;"/><text x="761.332" y="380.961" fill="#000" font-size="13" font-weight="700">5</text><text x="774.377" y="373.395" fill="#000" font-size="13" textLength="172.713">verifyPermissionAndScope</text><text x="774.377" y="388.528" fill="#000" font-size="13" textLength="119.196">(staffId, cinemaId)</text><polygon points="765.332,418.727,755.332,422.727,765.332,426.727,761.332,422.727" fill="#37474F" style="stroke:#37474F;stroke-width:1;stroke-linejoin:miter;stroke-miterlimit:10;"/><line x1="759.332" y1="422.727" x2="1012.346" y2="422.727" style="stroke:#37474F;stroke-width:1;stroke-dasharray:2,2;"/><text x="771.332" y="417.661" fill="#000" font-size="13" font-weight="700">6</text><text x="784.377" y="417.661" fill="#000" font-size="13" textLength="153.239">Kết quả kiểm tra quyền</text><path d="M51,434.727 L137.952,434.727 L137.952,441.859 L127.952,451.859 L51,451.859 L51,434.727" style="stroke:#78909C;stroke-width:1.5;" fill="#F5F5F5"/><rect x="51" y="434.727" width="719.332" height="114.531" fill="none" style="stroke:#78909C;stroke-width:1.5;"/><text x="66" y="447.793" fill="#000" font-size="13" textLength="41.952" font-weight="700">break</text><text x="152.952" y="446.937" fill="#000" font-size="11" textLength="179.464" font-weight="700">[STAFF không phụ trách rạp]</text><polygon points="525.009,478.992,515.009,482.992,525.009,486.992,521.009,482.992" fill="#37474F" style="stroke:#37474F;stroke-width:1;stroke-linejoin:miter;stroke-miterlimit:10;"/><line x1="519.009" y1="482.992" x2="753.332" y2="482.992" style="stroke:#37474F;stroke-width:1;stroke-dasharray:2,2;"/><text x="531.009" y="477.926" fill="#000" font-size="13" font-weight="700">7</text><text x="544.055" y="477.926" fill="#000" font-size="13" textLength="203.277">403 - Không có quyền hủy suất</text><polygon points="294.322,508.125,284.322,512.125,294.322,516.125,290.322,512.125" fill="#37474F" style="stroke:#37474F;stroke-width:1;stroke-linejoin:miter;stroke-miterlimit:10;"/><line x1="288.322" y1="512.125" x2="513.009" y2="512.125" style="stroke:#37474F;stroke-width:1;stroke-dasharray:2,2;"/><text x="300.322" y="507.059" fill="#000" font-size="13" font-weight="700">8</text><text x="313.368" y="507.059" fill="#000" font-size="13" textLength="178.147">Hiển thị lỗi không có quyền</text><polygon points="78,537.258,68,541.258,78,545.258,74,541.258" fill="#37474F" style="stroke:#37474F;stroke-width:1;stroke-linejoin:miter;stroke-miterlimit:10;"/><line x1="72" y1="541.258" x2="282.322" y2="541.258" style="stroke:#37474F;stroke-width:1;stroke-dasharray:2,2;"/><text x="84" y="536.192" fill="#000" font-size="13" font-weight="700">9</text><text x="97.045" y="536.192" fill="#000" font-size="13" textLength="112.411">Hủy suất thất bại</text><line x1="754.332" y1="612.391" x2="796.332" y2="612.391" style="stroke:#37474F;stroke-width:1;"/><line x1="796.332" y1="612.391" x2="796.332" y2="625.391" style="stroke:#37474F;stroke-width:1;"/><line x1="755.332" y1="625.391" x2="796.332" y2="625.391" style="stroke:#37474F;stroke-width:1;"/><polygon points="765.332,621.391,755.332,625.391,765.332,629.391,761.332,625.391" fill="#37474F" style="stroke:#37474F;stroke-width:1;stroke-linejoin:miter;stroke-miterlimit:10;"/><text x="761.332" y="607.325" fill="#000" font-size="13" textLength="18.091" font-weight="700">10</text><text x="783.423" y="607.325" fill="#000" font-size="13" textLength="194.994">Kiểm tra trạng thái suất chiếu</text><path d="M51,637.391 L137.952,637.391 L137.952,644.523 L127.952,654.523 L51,654.523 L51,637.391" style="stroke:#78909C;stroke-width:1.5;" fill="#F5F5F5"/><rect x="51" y="637.391" width="719.332" height="114.531" fill="none" style="stroke:#78909C;stroke-width:1.5;"/><text x="66" y="650.458" fill="#000" font-size="13" textLength="41.952" font-weight="700">break</text><text x="152.952" y="649.601" fill="#000" font-size="11" textLength="228.943" font-weight="700">[Suất chiếu đã kết thúc hoặc đã hủy]</text><polygon points="525.009,681.656,515.009,685.656,525.009,689.656,521.009,685.656" fill="#37474F" style="stroke:#37474F;stroke-width:1;stroke-linejoin:miter;stroke-miterlimit:10;"/><line x1="519.009" y1="685.656" x2="753.332" y2="685.656" style="stroke:#37474F;stroke-width:1;stroke-dasharray:2,2;"/><text x="531.009" y="680.59" fill="#000" font-size="13" textLength="18.091" font-weight="700">11</text><text x="553.1" y="680.59" fill="#000" font-size="13" textLength="164.957">409 - Không thể hủy suất</text><polygon points="294.322,710.789,284.322,714.789,294.322,718.789,290.322,714.789" fill="#37474F" style="stroke:#37474F;stroke-width:1;stroke-linejoin:miter;stroke-miterlimit:10;"/><line x1="288.322" y1="714.789" x2="513.009" y2="714.789" style="stroke:#37474F;stroke-width:1;stroke-dasharray:2,2;"/><text x="300.322" y="709.723" fill="#000" font-size="13" textLength="18.091" font-weight="700">12</text><text x="322.413" y="709.723" fill="#000" font-size="13" textLength="184.596">Hiển thị lý do không thể hủy</text><polygon points="78,739.922,68,743.922,78,747.922,74,743.922" fill="#37474F" style="stroke:#37474F;stroke-width:1;stroke-linejoin:miter;stroke-miterlimit:10;"/><line x1="72" y1="743.922" x2="282.322" y2="743.922" style="stroke:#37474F;stroke-width:1;stroke-dasharray:2,2;"/><text x="84" y="738.856" fill="#000" font-size="13" textLength="18.091" font-weight="700">13</text><text x="106.091" y="738.856" fill="#000" font-size="13" textLength="112.411">Hủy suất thất bại</text><path d="M719.332,769.922 L962.741,769.922 L962.741,777.055 L952.741,787.055 L719.332,787.055 L719.332,769.922" style="stroke:#78909C;stroke-width:1.5;" fill="#F5F5F5"/><rect x="719.332" y="769.922" width="757.791" height="362.594" fill="none" style="stroke:#78909C;stroke-width:1.5;"/><text x="734.332" y="782.989" fill="#000" font-size="13" textLength="198.409" font-weight="700">Transaction hủy suất chiếu</text><line x1="754.332" y1="818.188" x2="796.332" y2="818.188" style="stroke:#37474F;stroke-width:1;"/><line x1="796.332" y1="818.188" x2="796.332" y2="831.188" style="stroke:#37474F;stroke-width:1;"/><line x1="755.332" y1="831.188" x2="796.332" y2="831.188" style="stroke:#37474F;stroke-width:1;"/><polygon points="765.332,827.188,755.332,831.188,765.332,835.188,761.332,831.188" fill="#37474F" style="stroke:#37474F;stroke-width:1;stroke-linejoin:miter;stroke-miterlimit:10;"/><text x="761.332" y="813.122" fill="#000" font-size="13" textLength="18.091" font-weight="700">14</text><text x="783.423" y="813.122" fill="#000" font-size="13" textLength="222.923">Cập nhật showtime = CANCELLED</text><polygon points="1152.089,856.32,1162.089,860.32,1152.089,864.32,1156.089,860.32" fill="#37474F" style="stroke:#37474F;stroke-width:1;stroke-linejoin:miter;stroke-miterlimit:10;"/><line x1="754.332" y1="860.32" x2="1158.089" y2="860.32" style="stroke:#37474F;stroke-width:1;"/><text x="761.332" y="855.254" fill="#000" font-size="13" textLength="18.091" font-weight="700">15</text><text x="783.423" y="855.254" fill="#000" font-size="13" textLength="250.167">findBookingsByShowtime(showtimeId)</text><polygon points="765.332,885.453,755.332,889.453,765.332,893.453,761.332,889.453" fill="#37474F" style="stroke:#37474F;stroke-width:1;stroke-linejoin:miter;stroke-miterlimit:10;"/><line x1="759.332" y1="889.453" x2="1163.089" y2="889.453" style="stroke:#37474F;stroke-width:1;stroke-dasharray:2,2;"/><text x="771.332" y="884.387" fill="#000" font-size="13" textLength="18.091" font-weight="700">16</text><text x="793.423" y="884.387" fill="#000" font-size="13" textLength="214.265">Danh sách booking bị ảnh hưởng</text><polygon points="1292.582,914.586,1302.582,918.586,1292.582,922.586,1296.582,918.586" fill="#37474F" style="stroke:#37474F;stroke-width:1;stroke-linejoin:miter;stroke-miterlimit:10;"/><line x1="754.332" y1="918.586" x2="1298.582" y2="918.586" style="stroke:#37474F;stroke-width:1;"/><text x="761.332" y="913.52" fill="#000" font-size="13" textLength="18.091" font-weight="700">17</text><text x="783.423" y="913.52" fill="#000" font-size="13" textLength="209.441">cancelActiveTickets(bookingIds)</text><polygon points="765.332,943.719,755.332,947.719,765.332,951.719,761.332,947.719" fill="#37474F" style="stroke:#37474F;stroke-width:1;stroke-linejoin:miter;stroke-miterlimit:10;"/><line x1="759.332" y1="947.719" x2="1303.582" y2="947.719" style="stroke:#37474F;stroke-width:1;stroke-dasharray:2,2;"/><text x="771.332" y="942.653" fill="#000" font-size="13" textLength="18.091" font-weight="700">18</text><text x="793.423" y="942.653" fill="#000" font-size="13" textLength="105.473">Số ticket đã hủy</text><polygon points="1152.089,972.852,1162.089,976.852,1152.089,980.852,1156.089,976.852" fill="#37474F" style="stroke:#37474F;stroke-width:1;stroke-linejoin:miter;stroke-miterlimit:10;"/><line x1="754.332" y1="976.852" x2="1158.089" y2="976.852" style="stroke:#37474F;stroke-width:1;"/><text x="761.332" y="971.786" fill="#000" font-size="13" textLength="18.091" font-weight="700">19</text><text x="783.423" y="971.786" fill="#000" font-size="13" textLength="292.202">updateBookingAndRefundStatus(bookingIds)</text><polygon points="765.332,1001.984,755.332,1005.984,765.332,1009.984,761.332,1005.984" fill="#37474F" style="stroke:#37474F;stroke-width:1;stroke-linejoin:miter;stroke-miterlimit:10;"/><line x1="759.332" y1="1005.984" x2="1163.089" y2="1005.984" style="stroke:#37474F;stroke-width:1;stroke-dasharray:2,2;"/><text x="771.332" y="1000.918" fill="#000" font-size="13" textLength="18.091" font-weight="700">20</text><text x="793.423" y="1000.918" fill="#000" font-size="13" textLength="153.651">Số booking đã cập nhật</text><path d="M738.332,1017.984 L807.783,1017.984 L807.783,1025.117 L797.783,1035.117 L738.332,1035.117 L738.332,1017.984" style="stroke:#78909C;stroke-width:1.5;" fill="#F5F5F5"/><rect x="738.332" y="1017.984" width="713.791" height="100.531" fill="none" style="stroke:#78909C;stroke-width:1.5;"/><text x="753.332" y="1031.051" fill="#000" font-size="13" textLength="24.451" font-weight="700">opt</text><text x="822.783" y="1030.195" fill="#000" font-size="11" textLength="170.323" font-weight="700">[Có booking đã thanh toán]</text><polygon points="1424.123,1077.383,1434.123,1081.383,1424.123,1085.383,1428.123,1081.383" fill="#37474F" style="stroke:#37474F;stroke-width:1;stroke-linejoin:miter;stroke-miterlimit:10;"/><line x1="754.332" y1="1081.383" x2="1430.123" y2="1081.383" style="stroke:#37474F;stroke-width:1;"/><text x="761.332" y="1068.75" fill="#000" font-size="13" textLength="18.091" font-weight="700">21</text><text x="783.423" y="1061.184" fill="#000" font-size="13" textLength="192.823">createRefundPendingRecords</text><text x="783.423" y="1076.317" fill="#000" font-size="13" textLength="97.456">(paidBookings)</text><polygon points="765.332,1106.516,755.332,1110.516,765.332,1114.516,761.332,1110.516" fill="#37474F" style="stroke:#37474F;stroke-width:1;stroke-linejoin:miter;stroke-miterlimit:10;"/><line x1="759.332" y1="1110.516" x2="1435.123" y2="1110.516" style="stroke:#37474F;stroke-width:1;stroke-dasharray:2,2;"/><text x="771.332" y="1105.45" fill="#000" font-size="13" textLength="18.091" font-weight="700">22</text><text x="793.423" y="1105.45" fill="#000" font-size="13" textLength="168.791">Refund pending summary</text><polygon points="1541.182,1178.781,1551.182,1182.781,1541.182,1186.781,1545.182,1182.781" fill="#37474F" style="stroke:#37474F;stroke-width:1;stroke-linejoin:miter;stroke-miterlimit:10;"/><line x1="754.332" y1="1182.781" x2="1547.182" y2="1182.781" style="stroke:#37474F;stroke-width:1;"/><text x="761.332" y="1170.149" fill="#000" font-size="13" textLength="18.091" font-weight="700">23</text><text x="783.423" y="1162.583" fill="#000" font-size="13" textLength="150.528">recordCancelShowtime</text><text x="783.423" y="1177.715" fill="#000" font-size="13" textLength="184.495">(actor, showtime, summary)</text><polygon points="765.332,1207.914,755.332,1211.914,765.332,1215.914,761.332,1211.914" fill="#37474F" style="stroke:#37474F;stroke-width:1;stroke-linejoin:miter;stroke-miterlimit:10;"/><line x1="759.332" y1="1211.914" x2="1552.182" y2="1211.914" style="stroke:#37474F;stroke-width:1;stroke-dasharray:2,2;"/><text x="771.332" y="1206.848" fill="#000" font-size="13" textLength="18.091" font-weight="700">24</text><text x="793.423" y="1206.848" fill="#000" font-size="13" textLength="102.616">Audit log đã lưu</text><polygon points="525.009,1237.047,515.009,1241.047,525.009,1245.047,521.009,1241.047" fill="#37474F" style="stroke:#37474F;stroke-width:1;stroke-linejoin:miter;stroke-miterlimit:10;"/><line x1="519.009" y1="1241.047" x2="753.332" y2="1241.047" style="stroke:#37474F;stroke-width:1;stroke-dasharray:2,2;"/><text x="531.009" y="1235.981" fill="#000" font-size="13" textLength="18.091" font-weight="700">25</text><text x="553.1" y="1235.981" fill="#000" font-size="13" textLength="106.863">CancelSummary</text><polygon points="294.322,1266.18,284.322,1270.18,294.322,1274.18,290.322,1270.18" fill="#37474F" style="stroke:#37474F;stroke-width:1;stroke-linejoin:miter;stroke-miterlimit:10;"/><line x1="288.322" y1="1270.18" x2="513.009" y2="1270.18" style="stroke:#37474F;stroke-width:1;stroke-dasharray:2,2;"/><text x="300.322" y="1265.114" fill="#000" font-size="13" textLength="18.091" font-weight="700">26</text><text x="322.413" y="1265.114" fill="#000" font-size="13" textLength="176.585">200 OK + kết quả hủy suất</text><polygon points="78,1310.445,68,1314.445,78,1318.445,74,1314.445" fill="#37474F" style="stroke:#37474F;stroke-width:1;stroke-linejoin:miter;stroke-miterlimit:10;"/><line x1="72" y1="1314.445" x2="282.322" y2="1314.445" style="stroke:#37474F;stroke-width:1;stroke-dasharray:2,2;"/><text x="84" y="1301.813" fill="#000" font-size="13" textLength="18.091" font-weight="700">27</text><text x="106.091" y="1294.247" fill="#000" font-size="13" textLength="170.231">Hiển thị số booking, ticket</text><text x="106.091" y="1309.379" fill="#000" font-size="13" textLength="125.43">và refund cần xử lý</text><?plantuml-src dLRFQzn66Bthh_XmBmcriUFuHxpGmdhNsnYxzk9rwIMNMMbsDQmqeun6TfQGGyaXXvvowgdKfeJGWY6bXS8keOSj-J_qd_IRaMIDTfMrgGnUzEdDqvittxoHOYgWqAFF4yfT2cr6XfA4i0PFq-dxCSH9EdcdmFLPEladSHoIAC6Ji4-bupEFma08rHSl72SUCHuHFRHFtD5GYeHxBH482Lzqp6KXOfzuufBn8Gn845DxS5m8UUa0NaqfnMLEytXtQtUhOyh7R42F6QVxGdfKviztDdRRJ_Qhp-Ub7BGEEfr71jCbKZ6NHOIh2isZlTsTzkO2P87fSMUpqyv4kah82iVMzdPpPyjwk4J7DrYFAgDtd-njxBMiXmk6Rki_vnKkXsQ7bQONCWxhq5DaC5W14eEfd4fJSFfwB95ZM3cZE29xQ63ctjmwhk1AYW1MUhwuL2oahQmGK6cWvUqYj4Vb1NEfmStLBB3Mqi9L2Ka5NvOTZoZI9p65bNqXi2U6PpGICSCvZWtMgbhOS-QEg9g3biLIGPUCGygL_VPggOGs4uzLW7R1SMnxOUrhoyS6xEEE2S6ltJubJeygBMr0zxHt3kjnRbwy_f9vhzPTWbiXS9mIg8VDETo035QKlsVAxug0kUDd_451UEYjWfj8YNFzBgRoeUFeZehWYANJro4eIU1vCawdFt2uc5r1vAUJwn0k65RJoQySWjb7ntGa2HIS33zzIAS_Cr0uopzSmDbDtsZC5JJRtnwUP4XzpKcjLT_o1RvlzbkKUwRax7SEIiokkAwyCMzvouSPAyN0M2QWTzx4h5age6ou1bnGoGRZBfKXYsCcU9DxFLT4L5kdSSOtWptq7bgq9GUirKtg2DTRPUR1QC7ZagWlAHbbec7ap_x2J4Jlf--q2zUk3nBN8IhXjLEQwwIjZSSOtqSPcJlxytPXxPQiKjhzDTVDJxLuRep-4O9q-XChT5hKLJQxoP7DtYkDwh62hFgdZvDa9GVbdbFyEkRVVTh8wcIbNKE5ofzTiuKzc5jUgSA_RsUuK6RHSDG4Mqgaax_Th6wCo_JTRVvUQRusxNMDxVUsU_OHF57uRR5bDF_NPsDfjltF9U4nic3dVoQnxhsBqybD11nVTAEWI1tu2bhDazR1yV51-xDKLgWtOC2ubnVY_N61jc8ituJMeFeDs2RSXzZieNw6nUcZfphDVF1rVlnIP4gDgFBuAE8L3t9sGRDw_23dFFJYN50ve5vF3pCCb07TtLHpfYGH7dOqBs52dT417kYuq2gfKNAdDKPAOOhHubgBbv68I44BDtW5fdnjAYRpDL-QiDL35Gt47QTefhgBtMVKkVZ94sFCHeJThhYLi5ME-ebaZ11bbDYwOOXVESxTuM4VvWsGHakhSeYYCFDjjNhRowi5FugqnzTBCmW8HEvSyEb3KgDaBZno2SKqbiJ4viO6d1x1btbaPUTCDMYMfuCTCx7L3wjvZpxZ-ZD0PWPZUxpdy2ATtkX8-Wy0?></g></svg>